<svg xmlns="http://www.w3.org/2000/svg" xmlns:xlink="http://www.w3.org/1999/xlink" width="500" zoomAndPan="magnify" viewBox="0 0 375 374.999991" height="500" preserveAspectRatio="xMidYMid meet" version="1.0"><defs><clipPath id="id1"><path d="M 23.394531 65.992188 L 351.894531 65.992188 L 351.894531 308.992188 L 23.394531 308.992188 Z M 23.394531 65.992188 " clip-rule="nonzero"/></clipPath></defs><g clip-path="url(#id1)"><path fill="rgb(0%, 0%, 0%)" d="M 145.378906 65.992188 L 82.207031 65.996094 C 78.535156 65.996094 75.453125 68.371094 74.589844 71.867188 L 65.371094 109.167969 L 57.167969 142.339844 L 24.054688 276.359375 C 23.417969 278.929688 24.082031 281.738281 25.832031 283.914062 C 27.582031 286.09375 30.214844 287.378906 32.914062 287.378906 L 62.371094 287.378906 L 59.753906 297.972656 C 59.121094 300.542969 59.78125 303.347656 61.53125 305.527344 C 63.285156 307.707031 65.917969 308.992188 68.617188 308.992188 L 304.769531 308.992188 C 308.449219 308.992188 311.53125 306.621094 312.398438 303.121094 L 351.222656 146.042969 C 351.859375 143.472656 351.199219 140.660156 349.449219 138.480469 C 347.695312 136.300781 345.058594 135.011719 342.359375 135.011719 L 312.964844 135.011719 L 318.015625 114.296875 C 318.644531 111.730469 317.976562 108.925781 316.226562 106.753906 C 314.480469 104.582031 311.847656 103.296875 309.152344 103.292969 L 208.359375 103.292969 C 206.875 98.960938 204.542969 93.535156 200.203125 88.121094 C 191.058594 76.703125 173.613281 65.992188 145.378906 65.992188 Z M 89.617188 82.886719 L 146.613281 82.886719 C 170.835938 82.886719 181.457031 90.828125 187.25 98.0625 C 193.042969 105.292969 193.671875 111.957031 193.671875 111.957031 C 194.121094 116.539062 198.140625 120.199219 202.730469 120.195312 L 298.835938 120.195312 L 295.222656 135.011719 C 284.210938 135.011719 271.742188 135.011719 259.261719 135.011719 L 199.613281 135.011719 C 196.023438 135.011719 192.992188 137.277344 192.046875 140.660156 C 189.609375 149.394531 186.199219 157.050781 181.816406 163.707031 C 181.816406 163.707031 181.816406 163.707031 181.8125 163.707031 C 181.785156 163.75 181.753906 163.792969 181.726562 163.839844 C 181.460938 164.238281 181.195312 164.632812 180.925781 165.023438 C 180.585938 165.511719 180.242188 165.996094 179.894531 166.476562 C 179.722656 166.714844 179.550781 166.953125 179.375 167.191406 C 179.199219 167.429688 179.023438 167.664062 178.847656 167.898438 C 173.902344 174.453125 168.257812 179.941406 161.878906 184.449219 C 156.433594 188.296875 150.441406 191.433594 143.851562 193.863281 C 143.75 193.902344 143.644531 193.9375 143.542969 193.976562 C 143.371094 194.039062 143.195312 194.101562 143.023438 194.164062 C 143.023438 194.164062 143.023438 194.164062 143.019531 194.164062 C 142.746094 194.265625 142.46875 194.363281 142.1875 194.457031 C 140.511719 195.035156 138.800781 195.570312 137.050781 196.058594 C 137.042969 196.0625 137.03125 196.058594 137.027344 196.058594 C 127.804688 198.515625 118.078125 199.761719 107.773438 199.761719 L 90.195312 199.761719 C 88.058594 199.765625 86.058594 200.574219 84.601562 202.03125 C 84.503906 202.128906 84.40625 202.230469 84.316406 202.332031 C 84.269531 202.382812 84.222656 202.4375 84.179688 202.488281 C 84.132812 202.542969 84.089844 202.59375 84.046875 202.648438 C 83.988281 202.722656 83.929688 202.796875 83.875 202.871094 C 83.863281 202.886719 83.847656 202.90625 83.835938 202.925781 C 83.765625 203.019531 83.699219 203.113281 83.636719 203.210938 C 83.574219 203.308594 83.511719 203.40625 83.453125 203.503906 C 83.367188 203.644531 83.289062 203.785156 83.214844 203.929688 C 83.183594 203.992188 83.152344 204.054688 83.121094 204.117188 C 83.058594 204.246094 83.003906 204.371094 82.949219 204.5 C 82.929688 204.542969 82.914062 204.585938 82.898438 204.628906 C 82.878906 204.675781 82.863281 204.71875 82.847656 204.761719 C 82.832031 204.804688 82.8125 204.847656 82.796875 204.894531 C 82.78125 204.9375 82.769531 204.980469 82.753906 205.027344 C 82.730469 205.09375 82.710938 205.160156 82.6875 205.226562 C 82.683594 205.25 82.675781 205.269531 82.667969 205.292969 C 82.660156 205.316406 82.65625 205.339844 82.648438 205.359375 C 82.640625 205.382812 82.636719 205.40625 82.628906 205.429688 C 82.613281 205.496094 82.59375 205.5625 82.578125 205.628906 L 82.171875 207.269531 L 66.546875 270.484375 L 43.261719 270.484375 L 73.652344 147.484375 L 81.855469 114.3125 Z M 272.335938 151.914062 L 332.003906 151.914062 L 297.371094 292.101562 L 78.960938 292.101562 L 97.601562 216.652344 L 109.007812 216.652344 C 111.351562 216.652344 113.671875 216.597656 115.976562 216.484375 C 116.183594 216.472656 116.390625 216.460938 116.601562 216.453125 C 116.753906 216.445312 116.90625 216.433594 117.058594 216.425781 C 118.335938 216.351562 119.609375 216.261719 120.871094 216.152344 C 128.316406 215.515625 135.546875 214.265625 142.535156 212.402344 C 142.566406 212.398438 142.59375 212.390625 142.621094 212.382812 C 143.308594 212.191406 143.992188 211.992188 144.667969 211.789062 C 145.6875 211.484375 146.695312 211.164062 147.695312 210.832031 C 149.027344 210.386719 150.34375 209.917969 151.640625 209.421875 C 151.964844 209.300781 152.289062 209.175781 152.613281 209.046875 C 152.9375 208.921875 153.257812 208.792969 153.578125 208.664062 C 153.898438 208.535156 154.21875 208.402344 154.535156 208.269531 C 154.855469 208.136719 155.171875 208.003906 155.488281 207.867188 C 156.121094 207.597656 156.75 207.316406 157.375 207.035156 C 157.6875 206.890625 157.996094 206.75 158.308594 206.605469 C 158.925781 206.3125 159.542969 206.019531 160.15625 205.714844 C 160.460938 205.5625 160.765625 205.410156 161.066406 205.257812 C 161.371094 205.101562 161.675781 204.949219 161.976562 204.789062 C 162.277344 204.632812 162.578125 204.472656 162.875 204.3125 C 163.175781 204.152344 163.472656 203.992188 163.769531 203.828125 C 164.660156 203.339844 165.542969 202.832031 166.414062 202.316406 C 168.445312 201.105469 170.425781 199.824219 172.347656 198.464844 C 172.574219 198.304688 172.804688 198.140625 173.03125 197.976562 C 173.078125 197.941406 173.121094 197.910156 173.167969 197.878906 C 173.265625 197.804688 173.363281 197.734375 173.464844 197.660156 C 173.636719 197.535156 173.808594 197.410156 173.980469 197.28125 C 175.332031 196.28125 176.652344 195.242188 177.941406 194.167969 C 177.941406 194.167969 177.941406 194.167969 177.945312 194.167969 C 178.71875 193.523438 179.484375 192.863281 180.238281 192.191406 C 180.488281 191.964844 180.738281 191.742188 180.988281 191.515625 C 180.988281 191.515625 180.988281 191.515625 180.988281 191.511719 C 181.488281 191.058594 181.980469 190.597656 182.46875 190.132812 C 182.714844 189.898438 182.957031 189.664062 183.199219 189.429688 C 183.441406 189.191406 183.683594 188.953125 183.921875 188.714844 C 184.398438 188.238281 184.875 187.753906 185.34375 187.265625 C 185.34375 187.265625 185.34375 187.265625 185.347656 187.265625 C 186.285156 186.285156 187.207031 185.285156 188.105469 184.257812 C 188.105469 184.257812 188.105469 184.257812 188.109375 184.257812 C 188.332031 184.003906 188.558594 183.746094 188.78125 183.484375 C 190.121094 181.929688 191.414062 180.324219 192.664062 178.664062 C 192.875 178.390625 193.082031 178.113281 193.289062 177.832031 C 193.496094 177.554688 193.699219 177.273438 193.902344 176.992188 C 194.105469 176.710938 194.308594 176.425781 194.511719 176.140625 C 194.710938 175.859375 194.910156 175.570312 195.109375 175.285156 C 195.261719 175.066406 195.410156 174.847656 195.558594 174.628906 C 200.117188 167.875 203.5625 160.183594 206.355469 151.980469 C 222.441406 151.929688 248.105469 151.917969 272.335938 151.914062 Z M 272.335938 151.914062 " fill-opacity="1" fill-rule="nonzero"/></g></svg>