<svg xmlns="http://www.w3.org/2000/svg" xmlns:xlink="http://www.w3.org/1999/xlink" width="365" 
	 zoomAndPan="magnify" viewBox="0 0 273.75 67.499998" height="100" preserveAspectRatio="xMidYMid meet" version="1.0"><defs><g/><clipPath id="id1"><path d="M 27.894531 15.328125 L 77.074219 15.328125 L 77.074219 51.839844 L 27.894531 51.839844 Z M 27.894531 15.328125 " clip-rule="nonzero"/></clipPath></defs><g clip-path="url(#id1)"><path fill="rgb(0%, 0%, 0%)" d="M 46.15625 15.328125 L 36.699219 15.328125 C 36.148438 15.328125 35.6875 15.683594 35.558594 16.210938 L 34.179688 21.816406 L 32.949219 26.800781 L 27.992188 46.9375 C 27.898438 47.324219 27.996094 47.746094 28.257812 48.074219 C 28.519531 48.402344 28.914062 48.59375 29.320312 48.59375 L 33.730469 48.59375 L 33.335938 50.183594 C 33.242188 50.570312 33.339844 50.992188 33.601562 51.320312 C 33.867188 51.648438 34.257812 51.839844 34.664062 51.839844 L 70.023438 51.839844 C 70.574219 51.839844 71.035156 51.484375 71.164062 50.960938 L 76.976562 27.355469 C 77.070312 26.96875 76.972656 26.546875 76.710938 26.21875 C 76.449219 25.894531 76.054688 25.699219 75.648438 25.699219 L 71.25 25.699219 L 72.003906 22.585938 C 72.097656 22.199219 72 21.78125 71.738281 21.453125 C 71.476562 21.125 71.082031 20.933594 70.679688 20.933594 L 55.585938 20.933594 C 55.363281 20.28125 55.015625 19.464844 54.367188 18.652344 C 52.996094 16.9375 50.382812 15.328125 46.15625 15.328125 Z M 37.808594 17.867188 L 46.34375 17.867188 C 49.96875 17.867188 51.558594 19.058594 52.425781 20.148438 C 53.292969 21.234375 53.386719 22.234375 53.386719 22.234375 C 53.453125 22.921875 54.058594 23.472656 54.746094 23.472656 L 69.132812 23.472656 L 68.59375 25.699219 C 66.945312 25.699219 65.078125 25.699219 63.207031 25.699219 L 54.277344 25.699219 C 53.738281 25.699219 53.285156 26.039062 53.144531 26.546875 C 52.78125 27.859375 52.269531 29.011719 51.613281 30.011719 C 51.609375 30.015625 51.601562 30.023438 51.597656 30.03125 C 51.558594 30.089844 51.519531 30.148438 51.480469 30.207031 C 51.429688 30.28125 51.378906 30.355469 51.324219 30.425781 C 51.300781 30.460938 51.273438 30.5 51.246094 30.535156 C 51.222656 30.570312 51.195312 30.605469 51.167969 30.640625 C 50.425781 31.625 49.582031 32.449219 48.628906 33.128906 C 47.8125 33.707031 46.914062 34.175781 45.929688 34.542969 C 45.914062 34.546875 45.898438 34.554688 45.882812 34.558594 C 45.855469 34.566406 45.832031 34.578125 45.804688 34.585938 C 45.761719 34.601562 45.722656 34.617188 45.679688 34.632812 C 45.429688 34.71875 45.171875 34.796875 44.910156 34.871094 C 44.910156 34.871094 44.90625 34.871094 44.90625 34.871094 C 43.527344 35.242188 42.070312 35.429688 40.527344 35.429688 L 37.894531 35.429688 C 37.574219 35.429688 37.277344 35.550781 37.058594 35.769531 C 37.042969 35.785156 37.027344 35.800781 37.015625 35.816406 C 37.007812 35.824219 37 35.832031 36.992188 35.839844 C 36.988281 35.847656 36.980469 35.855469 36.972656 35.863281 C 36.964844 35.875 36.957031 35.882812 36.949219 35.894531 C 36.945312 35.898438 36.945312 35.902344 36.941406 35.902344 C 36.933594 35.917969 36.921875 35.933594 36.914062 35.945312 C 36.902344 35.960938 36.894531 35.976562 36.886719 35.992188 C 36.871094 36.011719 36.859375 36.03125 36.847656 36.054688 C 36.84375 36.0625 36.839844 36.074219 36.835938 36.082031 C 36.828125 36.101562 36.816406 36.121094 36.808594 36.140625 C 36.808594 36.148438 36.804688 36.152344 36.800781 36.160156 C 36.800781 36.167969 36.796875 36.171875 36.792969 36.179688 C 36.792969 36.1875 36.789062 36.191406 36.789062 36.199219 C 36.785156 36.207031 36.78125 36.210938 36.78125 36.21875 C 36.777344 36.230469 36.773438 36.238281 36.769531 36.25 C 36.769531 36.253906 36.769531 36.257812 36.769531 36.257812 C 36.765625 36.261719 36.765625 36.265625 36.765625 36.269531 C 36.765625 36.273438 36.761719 36.277344 36.761719 36.28125 C 36.757812 36.289062 36.757812 36.300781 36.753906 36.308594 L 36.695312 36.554688 L 34.355469 46.054688 L 30.867188 46.054688 L 35.417969 27.574219 L 36.644531 22.589844 Z M 65.164062 28.238281 L 74.097656 28.238281 L 68.914062 49.304688 L 36.210938 49.304688 L 39.003906 37.964844 L 40.710938 37.964844 C 41.0625 37.964844 41.410156 37.957031 41.753906 37.941406 C 41.785156 37.9375 41.816406 37.9375 41.847656 37.9375 C 41.871094 37.933594 41.894531 37.933594 41.917969 37.933594 C 42.109375 37.921875 42.296875 37.90625 42.488281 37.890625 C 43.601562 37.796875 44.683594 37.609375 45.730469 37.328125 C 45.734375 37.328125 45.738281 37.324219 45.742188 37.324219 C 45.746094 37.324219 45.746094 37.324219 45.746094 37.324219 C 45.847656 37.296875 45.949219 37.265625 46.050781 37.234375 C 46.203125 37.191406 46.355469 37.140625 46.503906 37.089844 C 46.703125 37.023438 46.898438 36.953125 47.09375 36.878906 C 47.144531 36.863281 47.191406 36.84375 47.242188 36.824219 C 47.289062 36.804688 47.335938 36.785156 47.382812 36.765625 C 47.433594 36.746094 47.480469 36.726562 47.527344 36.707031 C 47.574219 36.6875 47.625 36.667969 47.671875 36.644531 C 47.765625 36.605469 47.859375 36.5625 47.953125 36.519531 C 48 36.5 48.046875 36.476562 48.09375 36.457031 C 48.1875 36.414062 48.277344 36.367188 48.371094 36.324219 C 48.414062 36.300781 48.460938 36.277344 48.507812 36.253906 C 48.550781 36.230469 48.597656 36.207031 48.640625 36.183594 C 48.6875 36.160156 48.730469 36.136719 48.777344 36.113281 C 48.820312 36.089844 48.867188 36.0625 48.910156 36.039062 C 49.042969 35.964844 49.175781 35.890625 49.304688 35.8125 C 49.609375 35.628906 49.90625 35.4375 50.195312 35.234375 C 50.230469 35.210938 50.261719 35.183594 50.296875 35.160156 C 50.304688 35.15625 50.3125 35.148438 50.316406 35.144531 C 50.332031 35.132812 50.347656 35.125 50.363281 35.113281 C 50.386719 35.09375 50.414062 35.074219 50.441406 35.054688 C 50.640625 34.90625 50.839844 34.75 51.03125 34.585938 C 51.148438 34.492188 51.261719 34.390625 51.375 34.289062 C 51.414062 34.257812 51.453125 34.222656 51.488281 34.1875 C 51.5625 34.121094 51.636719 34.050781 51.710938 33.980469 C 51.746094 33.945312 51.785156 33.910156 51.820312 33.875 C 51.855469 33.839844 51.890625 33.804688 51.925781 33.769531 C 52 33.695312 52.070312 33.625 52.140625 33.550781 C 52.28125 33.402344 52.417969 33.253906 52.554688 33.097656 C 52.589844 33.058594 52.621094 33.023438 52.65625 32.984375 C 52.855469 32.75 53.050781 32.507812 53.238281 32.257812 C 53.269531 32.21875 53.300781 32.175781 53.332031 32.132812 C 53.359375 32.089844 53.390625 32.050781 53.421875 32.007812 C 53.453125 31.964844 53.484375 31.921875 53.511719 31.878906 C 53.542969 31.835938 53.574219 31.792969 53.601562 31.75 C 53.625 31.71875 53.648438 31.683594 53.667969 31.652344 C 54.351562 30.636719 54.867188 29.480469 55.285156 28.25 C 57.695312 28.242188 61.539062 28.238281 65.164062 28.238281 Z M 65.164062 28.238281 " fill-opacity="1" fill-rule="nonzero"/></g><g fill="rgb(0%, 0%, 0%)" fill-opacity="1"><g transform="translate(88.014041, 39.900344)"><g><path d="M 8.449219 -16.144531 L 1.585938 -16.144531 L 1.585938 0 L 5.140625 0 L 5.140625 -6.539062 L 8.449219 -6.539062 C 11.164062 -6.539062 13.265625 -8.554688 13.265625 -11.273438 C 13.265625 -13.964844 11.164062 -16.144531 8.449219 -16.144531 Z M 7.882812 -9.46875 L 5.140625 -9.46875 L 5.140625 -13.023438 L 7.882812 -13.023438 C 9.011719 -13.023438 9.875 -12.296875 9.875 -11.246094 C 9.875 -10.167969 9.011719 -9.46875 7.882812 -9.46875 Z M 7.882812 -9.46875 "/></g></g></g><g fill="rgb(0%, 0%, 0%)" fill-opacity="1"><g transform="translate(102.63191, 39.900344)"><g><path d="M 6.566406 0.214844 C 9.578125 0.214844 12.132812 -1.558594 12.132812 -4.574219 C 12.132812 -10.546875 4.707031 -9.066406 4.707031 -11.863281 C 4.707031 -12.78125 5.40625 -13.210938 6.269531 -13.210938 C 7.183594 -13.210938 8.097656 -12.699219 8.90625 -11.8125 L 11.273438 -14.070312 C 10.089844 -15.441406 8.285156 -16.359375 6.296875 -16.359375 C 3.738281 -16.359375 1.128906 -14.824219 1.128906 -11.597656 C 1.128906 -6.105469 8.582031 -7.425781 8.582031 -4.601562 C 8.582031 -3.710938 7.828125 -3.121094 6.589844 -3.121094 C 5.113281 -3.121094 3.953125 -3.953125 3.363281 -5.21875 L 0.429688 -3.390625 C 1.480469 -1.371094 3.738281 0.214844 6.566406 0.214844 Z M 6.566406 0.214844 "/></g></g></g><g fill="rgb(0%, 0%, 0%)" fill-opacity="1"><g transform="translate(116.631077, 39.900344)"><g><path d="M 15.660156 -16.144531 L 10.519531 -4.976562 L 5.433594 -16.144531 L 1.585938 -16.144531 L 1.585938 0 L 5.140625 0 L 5.140625 -9.632812 L 9.496094 0 L 11.542969 0 L 15.925781 -9.605469 L 15.925781 0 L 19.480469 0 L 19.480469 -16.144531 Z M 15.660156 -16.144531 "/></g></g></g><g fill="rgb(0%, 0%, 0%)" fill-opacity="1"><g transform="translate(138.942381, 39.900344)"><g/></g></g><g fill="rgb(0%, 0%, 0%)" fill-opacity="1"><g transform="translate(146.646916, 39.900344)"><g><path d="M 6.566406 0.214844 C 9.578125 0.214844 12.132812 -1.558594 12.132812 -4.574219 C 12.132812 -10.546875 4.707031 -9.066406 4.707031 -11.863281 C 4.707031 -12.78125 5.40625 -13.210938 6.269531 -13.210938 C 7.183594 -13.210938 8.097656 -12.699219 8.90625 -11.8125 L 11.273438 -14.070312 C 10.089844 -15.441406 8.285156 -16.359375 6.296875 -16.359375 C 3.738281 -16.359375 1.128906 -14.824219 1.128906 -11.597656 C 1.128906 -6.105469 8.582031 -7.425781 8.582031 -4.601562 C 8.582031 -3.710938 7.828125 -3.121094 6.589844 -3.121094 C 5.113281 -3.121094 3.953125 -3.953125 3.363281 -5.21875 L 0.429688 -3.390625 C 1.480469 -1.371094 3.738281 0.214844 6.566406 0.214844 Z M 6.566406 0.214844 "/></g></g></g><g fill="rgb(0%, 0%, 0%)" fill-opacity="1"><g transform="translate(160.646083, 39.900344)"><g><path d="M 14.5 -16.144531 L 10.546875 -16.144531 L 7.101562 -10.679688 L 3.660156 -16.144531 L -0.351562 -16.144531 L 5.328125 -7.585938 L 5.328125 0 L 8.878906 0 L 8.878906 -7.613281 Z M 14.5 -16.144531 "/></g></g></g><g fill="rgb(0%, 0%, 0%)" fill-opacity="1"><g transform="translate(176.070954, 39.900344)"><g><path d="M 6.566406 0.214844 C 9.578125 0.214844 12.132812 -1.558594 12.132812 -4.574219 C 12.132812 -10.546875 4.707031 -9.066406 4.707031 -11.863281 C 4.707031 -12.78125 5.40625 -13.210938 6.269531 -13.210938 C 7.183594 -13.210938 8.097656 -12.699219 8.90625 -11.8125 L 11.273438 -14.070312 C 10.089844 -15.441406 8.285156 -16.359375 6.296875 -16.359375 C 3.738281 -16.359375 1.128906 -14.824219 1.128906 -11.597656 C 1.128906 -6.105469 8.582031 -7.425781 8.582031 -4.601562 C 8.582031 -3.710938 7.828125 -3.121094 6.589844 -3.121094 C 5.113281 -3.121094 3.953125 -3.953125 3.363281 -5.21875 L 0.429688 -3.390625 C 1.480469 -1.371094 3.738281 0.214844 6.566406 0.214844 Z M 6.566406 0.214844 "/></g></g></g><g fill="rgb(0%, 0%, 0%)" fill-opacity="1"><g transform="translate(190.070116, 39.900344)"><g><path d="M 11.542969 -16.144531 L -0.132812 -16.144531 L -0.132812 -12.996094 L 3.953125 -12.996094 L 3.953125 0 L 7.480469 0 L 7.480469 -12.996094 L 11.542969 -12.996094 Z M 11.542969 -16.144531 "/></g></g></g><g fill="rgb(0%, 0%, 0%)" fill-opacity="1"><g transform="translate(202.72427, 39.900344)"><g><path d="M 11.433594 -13.023438 L 11.433594 -16.144531 L 1.722656 -16.144531 L 1.722656 0 L 11.433594 0 L 11.433594 -3.121094 L 5.273438 -3.121094 L 5.273438 -6.511719 L 10.546875 -6.511719 L 10.546875 -9.632812 L 5.273438 -9.632812 L 5.273438 -13.023438 Z M 11.433594 -13.023438 "/></g></g></g><g fill="rgb(0%, 0%, 0%)" fill-opacity="1"><g transform="translate(216.508241, 39.900344)"><g><path d="M 15.660156 -16.144531 L 10.519531 -4.976562 L 5.433594 -16.144531 L 1.585938 -16.144531 L 1.585938 0 L 5.140625 0 L 5.140625 -9.632812 L 9.496094 0 L 11.542969 0 L 15.925781 -9.605469 L 15.925781 0 L 19.480469 0 L 19.480469 -16.144531 Z M 15.660156 -16.144531 "/></g></g></g></svg>