<svg xmlns="http://www.w3.org/2000/svg" xmlns:xlink="http://www.w3.org/1999/xlink" width="365" zoomAndPan="magnify" viewBox="0 0 273.75 69.499998" height="90" preserveAspectRatio="xMidYMid meet" version="1.0"><defs><g/><clipPath id="id1"><path d="M 0.882812 0 L 272.621094 0 L 272.621094 67.003906 L 0.882812 67.003906 Z M 0.882812 0 " clip-rule="nonzero"/></clipPath><clipPath id="id2"><path d="M 4.382812 3.910156 L 64.738281 3.910156 L 64.738281 64.265625 L 4.382812 64.265625 Z M 4.382812 3.910156 " clip-rule="nonzero"/></clipPath></defs><g clip-path="url(#id1)"><path fill="#ffffff" d="M 0.882812 0 L 272.867188 0 L 272.867188 73.769531 L 0.882812 73.769531 Z M 0.882812 0 " fill-opacity="1" fill-rule="nonzero"/><path fill="#ffffff" d="M 0.882812 0 L 272.867188 0 L 272.867188 67.066406 L 0.882812 67.066406 Z M 0.882812 0 " fill-opacity="1" fill-rule="nonzero"/><path fill="#ffffff" d="M 0.882812 0 L 272.867188 0 L 272.867188 67.066406 L 0.882812 67.066406 Z M 0.882812 0 " fill-opacity="1" fill-rule="nonzero"/></g><path fill="#000000" d="M 14.144531 41.738281 C 13.855469 41.449219 13.425781 41.363281 13.050781 41.519531 C 12.675781 41.675781 12.429688 42.042969 12.429688 42.449219 L 12.429688 55.214844 C 12.429688 55.769531 12.878906 56.21875 13.433594 56.21875 L 26.199219 56.21875 C 26.605469 56.21875 26.972656 55.972656 27.128906 55.597656 C 27.28125 55.222656 27.195312 54.789062 26.910156 54.5 Z M 14.441406 54.207031 L 14.441406 44.878906 L 23.769531 54.207031 Z M 14.441406 54.207031 " fill-opacity="1" fill-rule="nonzero"/><path fill="#000000" d="M 52.027344 24.007812 L 50.066406 25.964844 C 49.929688 25.902344 49.789062 25.847656 49.648438 25.792969 L 49.648438 23.023438 C 49.648438 22.464844 49.199219 22.015625 48.644531 22.015625 L 42.605469 22.015625 C 42.050781 22.015625 41.601562 22.464844 41.601562 23.023438 L 41.601562 25.792969 C 41.460938 25.847656 41.320312 25.90625 41.183594 25.96875 L 39.222656 24.007812 C 38.828125 23.613281 38.191406 23.613281 37.800781 24.007812 L 33.53125 28.273438 C 33.136719 28.667969 33.136719 29.304688 33.53125 29.699219 L 35.492188 31.65625 C 35.429688 31.796875 35.371094 31.9375 35.316406 32.074219 L 32.546875 32.074219 C 31.992188 32.074219 31.542969 32.523438 31.542969 33.082031 L 31.542969 39.117188 C 31.542969 39.671875 31.992188 40.125 32.546875 40.125 L 35.316406 40.125 C 35.371094 40.261719 35.429688 40.402344 35.492188 40.542969 L 33.53125 42.5 C 33.140625 42.894531 33.140625 43.53125 33.53125 43.925781 L 37.800781 48.191406 C 38.195312 48.585938 38.828125 48.585938 39.222656 48.191406 L 41.183594 46.230469 C 41.320312 46.292969 41.460938 46.351562 41.601562 46.40625 L 41.601562 49.175781 C 41.601562 49.734375 42.050781 50.183594 42.609375 50.183594 L 48.644531 50.183594 C 49.199219 50.183594 49.648438 49.734375 49.648438 49.175781 L 49.648438 46.40625 C 49.789062 46.351562 49.929688 46.292969 50.066406 46.230469 L 52.027344 48.191406 C 52.421875 48.585938 53.058594 48.585938 53.453125 48.191406 L 57.71875 43.925781 C 58.113281 43.53125 58.113281 42.894531 57.71875 42.5 L 55.757812 40.542969 C 55.820312 40.402344 55.878906 40.261719 55.933594 40.125 L 58.703125 40.125 C 59.257812 40.125 59.710938 39.671875 59.710938 39.117188 L 59.710938 33.082031 C 59.710938 32.523438 59.257812 32.074219 58.703125 32.074219 L 55.933594 32.074219 C 55.878906 31.9375 55.820312 31.796875 55.757812 31.65625 L 57.71875 29.699219 C 58.113281 29.304688 58.113281 28.667969 57.71875 28.273438 L 53.453125 24.007812 C 53.058594 23.613281 52.421875 23.613281 52.027344 24.007812 Z M 53.652344 31.917969 C 53.902344 32.402344 54.109375 32.894531 54.265625 33.382812 C 54.394531 33.804688 54.785156 34.085938 55.222656 34.085938 L 57.699219 34.085938 L 57.699219 38.113281 L 55.222656 38.113281 C 54.785156 38.113281 54.394531 38.394531 54.265625 38.816406 C 54.109375 39.304688 53.902344 39.796875 53.652344 40.28125 C 53.445312 40.671875 53.519531 41.148438 53.832031 41.460938 L 55.582031 43.210938 L 52.738281 46.058594 L 50.984375 44.304688 C 50.671875 43.992188 50.199219 43.921875 49.808594 44.125 C 49.320312 44.378906 48.828125 44.582031 48.339844 44.738281 C 47.921875 44.871094 47.636719 45.257812 47.636719 45.695312 L 47.636719 48.171875 L 43.613281 48.171875 L 43.613281 45.699219 C 43.613281 45.257812 43.328125 44.871094 42.910156 44.738281 C 42.421875 44.585938 41.929688 44.378906 41.441406 44.125 C 41.050781 43.921875 40.574219 43.996094 40.265625 44.304688 L 38.511719 46.058594 L 35.664062 43.214844 L 37.417969 41.460938 C 37.730469 41.148438 37.804688 40.671875 37.597656 40.285156 C 37.34375 39.796875 37.140625 39.304688 36.984375 38.816406 C 36.855469 38.394531 36.46875 38.113281 36.027344 38.113281 L 33.554688 38.113281 L 33.554688 34.085938 L 36.027344 34.085938 C 36.46875 34.085938 36.855469 33.804688 36.988281 33.382812 C 37.140625 32.894531 37.347656 32.402344 37.601562 31.917969 C 37.804688 31.527344 37.730469 31.050781 37.421875 30.738281 L 35.667969 28.984375 L 38.511719 26.140625 L 40.265625 27.894531 C 40.578125 28.207031 41.054688 28.277344 41.445312 28.074219 C 41.929688 27.820312 42.425781 27.613281 42.910156 27.460938 C 43.332031 27.328125 43.613281 26.941406 43.613281 26.503906 L 43.613281 24.027344 L 47.640625 24.027344 L 47.640625 26.5 C 47.640625 26.941406 47.921875 27.328125 48.34375 27.460938 C 48.828125 27.613281 49.324219 27.820312 49.808594 28.074219 C 50.199219 28.277344 50.675781 28.207031 50.988281 27.894531 L 52.742188 26.140625 L 55.585938 28.984375 L 53.832031 30.738281 C 53.519531 31.050781 53.445312 31.527344 53.652344 31.917969 Z M 53.652344 31.917969 " fill-opacity="1" fill-rule="nonzero"/><path fill="#000000" d="M 45.625 30.0625 C 42.296875 30.0625 39.589844 32.769531 39.589844 36.097656 C 39.589844 39.429688 42.296875 42.136719 45.625 42.136719 C 48.953125 42.136719 51.660156 39.429688 51.660156 36.097656 C 51.660156 32.769531 48.953125 30.0625 45.625 30.0625 Z M 45.625 40.125 C 43.40625 40.125 41.601562 38.320312 41.601562 36.097656 C 41.601562 33.878906 43.40625 32.074219 45.625 32.074219 C 47.84375 32.074219 49.648438 33.878906 49.648438 36.097656 C 49.648438 38.320312 47.84375 40.125 45.625 40.125 Z M 45.625 40.125 " fill-opacity="1" fill-rule="nonzero"/><g clip-path="url(#id2)"><path fill="#000000" d="M 64.671875 14.644531 C 64.660156 14.613281 64.652344 14.582031 64.640625 14.550781 C 64.589844 14.445312 64.53125 14.347656 64.445312 14.265625 C 64.445312 14.265625 64.445312 14.261719 64.445312 14.261719 L 54.386719 4.203125 C 54.386719 4.203125 54.382812 4.203125 54.378906 4.199219 C 54.296875 4.117188 54.199219 4.054688 54.09375 4.007812 C 54.066406 3.992188 54.035156 3.988281 54.007812 3.976562 C 53.917969 3.945312 53.824219 3.925781 53.726562 3.917969 C 53.707031 3.917969 53.691406 3.910156 53.671875 3.910156 L 19.46875 3.910156 C 18.914062 3.910156 18.464844 4.359375 18.464844 4.914062 L 18.464844 8.9375 L 5.386719 8.9375 C 4.832031 8.9375 4.382812 9.386719 4.382812 9.945312 L 4.382812 17.992188 C 4.382812 18.546875 4.832031 18.996094 5.386719 18.996094 L 18.464844 18.996094 L 18.464844 34.675781 L 6.097656 22.3125 C 5.808594 22.023438 5.375 21.933594 5 22.09375 C 4.625 22.246094 4.382812 22.617188 4.382812 23.023438 L 4.382812 63.261719 C 4.382812 63.816406 4.832031 64.265625 5.386719 64.265625 L 63.734375 64.265625 C 64.289062 64.265625 64.738281 63.816406 64.738281 63.261719 L 64.738281 14.972656 C 64.738281 14.953125 64.726562 14.933594 64.726562 14.910156 C 64.722656 14.820312 64.703125 14.734375 64.671875 14.644531 Z M 61.304688 13.96875 L 54.679688 13.96875 L 54.679688 7.34375 Z M 38.585938 11.675781 L 42.589844 13.96875 L 38.585938 16.257812 Z M 36.570312 16.984375 L 13.433594 16.984375 L 13.433594 10.949219 L 36.570312 10.949219 Z M 6.394531 10.949219 L 11.421875 10.949219 L 11.421875 16.984375 L 6.394531 16.984375 Z M 6.394531 62.253906 L 6.394531 25.449219 L 12.011719 31.070312 L 9.707031 33.375 L 11.128906 34.796875 L 13.433594 32.492188 L 16.035156 35.09375 L 13.730469 37.398438 L 15.152344 38.824219 L 17.457031 36.515625 L 20.058594 39.117188 L 17.753906 41.425781 L 19.175781 42.847656 L 21.484375 40.539062 L 24.082031 43.140625 L 21.777344 45.449219 L 23.199219 46.871094 L 25.507812 44.5625 L 28.109375 47.164062 L 25.800781 49.472656 L 27.222656 50.894531 L 29.53125 48.585938 L 32.132812 51.1875 L 29.824219 53.496094 L 31.246094 54.917969 L 33.554688 52.613281 L 36.15625 55.214844 L 33.847656 57.519531 L 35.269531 58.941406 L 37.578125 56.636719 L 43.199219 62.253906 Z M 62.726562 62.253906 L 46.042969 62.253906 L 20.476562 36.6875 L 20.476562 18.996094 L 37.578125 18.996094 C 37.753906 18.996094 37.925781 18.953125 38.078125 18.863281 L 45.117188 14.839844 C 45.433594 14.664062 45.625 14.328125 45.625 13.96875 C 45.625 13.609375 45.433594 13.273438 45.117188 13.09375 L 38.078125 9.070312 C 37.925781 8.984375 37.753906 8.9375 37.578125 8.9375 L 20.476562 8.9375 L 20.476562 5.921875 L 52.667969 5.921875 L 52.667969 14.972656 C 52.667969 15.53125 53.117188 15.980469 53.671875 15.980469 L 62.726562 15.980469 Z M 62.726562 62.253906 " fill-opacity="1" fill-rule="nonzero"/></g><path fill="#000000" d="M 58.703125 58.230469 L 60.714844 58.230469 L 60.714844 60.242188 L 58.703125 60.242188 Z M 58.703125 58.230469 " fill-opacity="1" fill-rule="nonzero"/><path fill="#000000" d="M 54.679688 58.230469 L 56.691406 58.230469 L 56.691406 60.242188 L 54.679688 60.242188 Z M 54.679688 58.230469 " fill-opacity="1" fill-rule="nonzero"/><path fill="#000000" d="M 50.65625 58.230469 L 52.667969 58.230469 L 52.667969 60.242188 L 50.65625 60.242188 Z M 50.65625 58.230469 " fill-opacity="1" fill-rule="nonzero"/><g fill="#000000" fill-opacity="1"><g transform="translate(67.694062, 27.376317)"><g><path d="M 12.421875 -10.15625 C 12.421875 -8.488281 11.925781 -7.203125 10.9375 -6.296875 C 9.957031 -5.390625 8.566406 -4.9375 6.765625 -4.9375 L 5.625 -4.9375 L 5.625 0 L 1.609375 0 L 1.609375 -14.890625 L 6.765625 -14.890625 C 8.640625 -14.890625 10.050781 -14.476562 11 -13.65625 C 11.945312 -12.832031 12.421875 -11.664062 12.421875 -10.15625 Z M 5.625 -8.21875 L 6.359375 -8.21875 C 6.960938 -8.21875 7.441406 -8.382812 7.796875 -8.71875 C 8.160156 -9.0625 8.34375 -9.535156 8.34375 -10.140625 C 8.34375 -11.140625 7.785156 -11.640625 6.671875 -11.640625 L 5.625 -11.640625 Z M 5.625 -8.21875 "/></g></g></g><g fill="#000000" fill-opacity="1"><g transform="translate(80.869724, 27.376317)"><g><path d="M 8.34375 -11.75 C 8.6875 -11.75 9.015625 -11.71875 9.328125 -11.65625 L 9.546875 -11.625 L 9.203125 -7.859375 C 8.867188 -7.941406 8.414062 -7.984375 7.84375 -7.984375 C 6.96875 -7.984375 6.332031 -7.785156 5.9375 -7.390625 C 5.550781 -6.992188 5.359375 -6.421875 5.359375 -5.671875 L 5.359375 0 L 1.375 0 L 1.375 -11.546875 L 4.34375 -11.546875 L 4.953125 -9.703125 L 5.15625 -9.703125 C 5.488281 -10.304688 5.953125 -10.796875 6.546875 -11.171875 C 7.140625 -11.554688 7.738281 -11.75 8.34375 -11.75 Z M 8.34375 -11.75 "/></g></g></g><g fill="#000000" fill-opacity="1"><g transform="translate(90.654745, 27.376317)"><g><path d="M 12.390625 -5.796875 C 12.390625 -3.910156 11.878906 -2.4375 10.859375 -1.375 C 9.847656 -0.320312 8.429688 0.203125 6.609375 0.203125 C 4.859375 0.203125 3.460938 -0.332031 2.421875 -1.40625 C 1.390625 -2.488281 0.875 -3.953125 0.875 -5.796875 C 0.875 -7.671875 1.378906 -9.128906 2.390625 -10.171875 C 3.410156 -11.222656 4.835938 -11.75 6.671875 -11.75 C 7.804688 -11.75 8.804688 -11.503906 9.671875 -11.015625 C 10.546875 -10.535156 11.21875 -9.84375 11.6875 -8.9375 C 12.15625 -8.039062 12.390625 -6.992188 12.390625 -5.796875 Z M 4.921875 -5.796875 C 4.921875 -4.804688 5.050781 -4.050781 5.3125 -3.53125 C 5.582031 -3.007812 6.03125 -2.75 6.65625 -2.75 C 7.269531 -2.75 7.703125 -3.007812 7.953125 -3.53125 C 8.210938 -4.050781 8.34375 -4.804688 8.34375 -5.796875 C 8.34375 -6.773438 8.210938 -7.515625 7.953125 -8.015625 C 7.691406 -8.523438 7.25 -8.78125 6.625 -8.78125 C 6.019531 -8.78125 5.582031 -8.53125 5.3125 -8.03125 C 5.050781 -7.53125 4.921875 -6.785156 4.921875 -5.796875 Z M 4.921875 -5.796875 "/></g></g></g><g fill="#000000" fill-opacity="1"><g transform="translate(103.942416, 27.376317)"><g><path d="M 1.078125 5.015625 C 0.753906 5.015625 0.378906 4.988281 -0.046875 4.9375 C -0.472656 4.882812 -0.8125 4.820312 -1.0625 4.75 L -1.0625 1.65625 C -0.625 1.769531 -0.21875 1.828125 0.15625 1.828125 C 0.96875 1.828125 1.375 1.253906 1.375 0.109375 L 1.375 -11.546875 L 5.359375 -11.546875 L 5.359375 0.9375 C 5.359375 2.207031 4.984375 3.203125 4.234375 3.921875 C 3.492188 4.648438 2.441406 5.015625 1.078125 5.015625 Z M 1.265625 -14.40625 C 1.265625 -15.007812 1.429688 -15.457031 1.765625 -15.75 C 2.097656 -16.039062 2.632812 -16.1875 3.375 -16.1875 C 4.113281 -16.1875 4.65625 -16.035156 5 -15.734375 C 5.34375 -15.429688 5.515625 -14.988281 5.515625 -14.40625 C 5.515625 -13.238281 4.800781 -12.65625 3.375 -12.65625 C 1.96875 -12.65625 1.265625 -13.238281 1.265625 -14.40625 Z M 1.265625 -14.40625 "/></g></g></g><g fill="#000000" fill-opacity="1"><g transform="translate(110.703342, 27.376317)"><g><path d="M 6.953125 0.203125 C 5.023438 0.203125 3.53125 -0.304688 2.46875 -1.328125 C 1.40625 -2.347656 0.875 -3.800781 0.875 -5.6875 C 0.875 -7.632812 1.363281 -9.128906 2.34375 -10.171875 C 3.332031 -11.222656 4.738281 -11.75 6.5625 -11.75 C 8.300781 -11.75 9.644531 -11.296875 10.59375 -10.390625 C 11.539062 -9.484375 12.015625 -8.175781 12.015625 -6.46875 L 12.015625 -4.703125 L 4.90625 -4.703125 C 4.925781 -4.054688 5.160156 -3.546875 5.609375 -3.171875 C 6.054688 -2.804688 6.660156 -2.625 7.421875 -2.625 C 8.117188 -2.625 8.757812 -2.691406 9.34375 -2.828125 C 9.9375 -2.960938 10.578125 -3.1875 11.265625 -3.5 L 11.265625 -0.640625 C 10.640625 -0.316406 9.992188 -0.0976562 9.328125 0.015625 C 8.660156 0.140625 7.867188 0.203125 6.953125 0.203125 Z M 6.71875 -9.03125 C 6.25 -9.03125 5.851562 -8.878906 5.53125 -8.578125 C 5.21875 -8.285156 5.035156 -7.828125 4.984375 -7.203125 L 8.40625 -7.203125 C 8.382812 -7.753906 8.222656 -8.195312 7.921875 -8.53125 C 7.617188 -8.863281 7.21875 -9.03125 6.71875 -9.03125 Z M 6.71875 -9.03125 "/></g></g></g><g fill="#000000" fill-opacity="1"><g transform="translate(123.593905, 27.376317)"><g><path d="M 6.625 0.203125 C 4.738281 0.203125 3.304688 -0.304688 2.328125 -1.328125 C 1.359375 -2.347656 0.875 -3.8125 0.875 -5.71875 C 0.875 -7.632812 1.398438 -9.117188 2.453125 -10.171875 C 3.503906 -11.222656 5.003906 -11.75 6.953125 -11.75 C 8.285156 -11.75 9.539062 -11.457031 10.71875 -10.875 L 9.546875 -7.921875 C 9.066406 -8.128906 8.625 -8.296875 8.21875 -8.421875 C 7.8125 -8.546875 7.390625 -8.609375 6.953125 -8.609375 C 6.304688 -8.609375 5.804688 -8.359375 5.453125 -7.859375 C 5.097656 -7.359375 4.921875 -6.648438 4.921875 -5.734375 C 4.921875 -3.890625 5.601562 -2.96875 6.96875 -2.96875 C 8.132812 -2.96875 9.253906 -3.304688 10.328125 -3.984375 L 10.328125 -0.8125 C 9.304688 -0.132812 8.070312 0.203125 6.625 0.203125 Z M 6.625 0.203125 "/></g></g></g><g fill="#000000" fill-opacity="1"><g transform="translate(134.834963, 27.376317)"><g><path d="M 7.03125 -2.9375 C 7.5625 -2.9375 8.203125 -3.070312 8.953125 -3.34375 L 8.953125 -0.4375 C 8.410156 -0.207031 7.894531 -0.046875 7.40625 0.046875 C 6.925781 0.148438 6.363281 0.203125 5.71875 0.203125 C 4.375 0.203125 3.40625 -0.125 2.8125 -0.78125 C 2.226562 -1.4375 1.9375 -2.441406 1.9375 -3.796875 L 1.9375 -8.5625 L 0.546875 -8.5625 L 0.546875 -10.171875 L 2.3125 -11.421875 L 3.34375 -13.859375 L 5.953125 -13.859375 L 5.953125 -11.546875 L 8.78125 -11.546875 L 8.78125 -8.5625 L 5.953125 -8.5625 L 5.953125 -4.0625 C 5.953125 -3.3125 6.3125 -2.9375 7.03125 -2.9375 Z M 7.03125 -2.9375 "/></g></g></g><g fill="#000000" fill-opacity="1"><g transform="translate(144.426519, 27.376317)"><g/></g></g><g fill="#000000" fill-opacity="1"><g transform="translate(149.843406, 27.376317)"><g><path d="M 8.09375 0 L 5.046875 -10.71875 L 4.953125 -10.71875 C 5.097656 -8.894531 5.171875 -7.476562 5.171875 -6.46875 L 5.171875 0 L 1.609375 0 L 1.609375 -14.890625 L 6.96875 -14.890625 L 10.078125 -4.3125 L 10.15625 -4.3125 L 13.203125 -14.890625 L 18.5625 -14.890625 L 18.5625 0 L 14.875 0 L 14.875 -6.53125 C 14.875 -6.863281 14.878906 -7.238281 14.890625 -7.65625 C 14.898438 -8.070312 14.941406 -9.085938 15.015625 -10.703125 L 14.9375 -10.703125 L 11.921875 0 Z M 8.09375 0 "/></g></g></g><g fill="#000000" fill-opacity="1"><g transform="translate(170.004001, 27.376317)"><g><path d="M 12.390625 -5.796875 C 12.390625 -3.910156 11.878906 -2.4375 10.859375 -1.375 C 9.847656 -0.320312 8.429688 0.203125 6.609375 0.203125 C 4.859375 0.203125 3.460938 -0.332031 2.421875 -1.40625 C 1.390625 -2.488281 0.875 -3.953125 0.875 -5.796875 C 0.875 -7.671875 1.378906 -9.128906 2.390625 -10.171875 C 3.410156 -11.222656 4.835938 -11.75 6.671875 -11.75 C 7.804688 -11.75 8.804688 -11.503906 9.671875 -11.015625 C 10.546875 -10.535156 11.21875 -9.84375 11.6875 -8.9375 C 12.15625 -8.039062 12.390625 -6.992188 12.390625 -5.796875 Z M 4.921875 -5.796875 C 4.921875 -4.804688 5.050781 -4.050781 5.3125 -3.53125 C 5.582031 -3.007812 6.03125 -2.75 6.65625 -2.75 C 7.269531 -2.75 7.703125 -3.007812 7.953125 -3.53125 C 8.210938 -4.050781 8.34375 -4.804688 8.34375 -5.796875 C 8.34375 -6.773438 8.210938 -7.515625 7.953125 -8.015625 C 7.691406 -8.523438 7.25 -8.78125 6.625 -8.78125 C 6.019531 -8.78125 5.582031 -8.53125 5.3125 -8.03125 C 5.050781 -7.53125 4.921875 -6.785156 4.921875 -5.796875 Z M 4.921875 -5.796875 "/></g></g></g><g fill="#000000" fill-opacity="1"><g transform="translate(183.291671, 27.376317)"><g><path d="M 8.65625 0 L 8.65625 -6.296875 C 8.65625 -7.066406 8.546875 -7.644531 8.328125 -8.03125 C 8.109375 -8.414062 7.753906 -8.609375 7.265625 -8.609375 C 6.585938 -8.609375 6.097656 -8.335938 5.796875 -7.796875 C 5.503906 -7.265625 5.359375 -6.347656 5.359375 -5.046875 L 5.359375 0 L 1.375 0 L 1.375 -11.546875 L 4.375 -11.546875 L 4.875 -10.109375 L 5.109375 -10.109375 C 5.453125 -10.648438 5.921875 -11.054688 6.515625 -11.328125 C 7.117188 -11.609375 7.8125 -11.75 8.59375 -11.75 C 9.875 -11.75 10.867188 -11.375 11.578125 -10.625 C 12.285156 -9.882812 12.640625 -8.84375 12.640625 -7.5 L 12.640625 0 Z M 8.65625 0 "/></g></g></g><g fill="#000000" fill-opacity="1"><g transform="translate(197.261537, 27.376317)"><g><path d="M 5.375 0 L 1.390625 0 L 1.390625 -11.546875 L 5.375 -11.546875 Z M 1.296875 -14.40625 C 1.296875 -15.007812 1.460938 -15.457031 1.796875 -15.75 C 2.128906 -16.039062 2.664062 -16.1875 3.40625 -16.1875 C 4.144531 -16.1875 4.679688 -16.035156 5.015625 -15.734375 C 5.359375 -15.429688 5.53125 -14.988281 5.53125 -14.40625 C 5.53125 -13.238281 4.820312 -12.65625 3.40625 -12.65625 C 2 -12.65625 1.296875 -13.238281 1.296875 -14.40625 Z M 1.296875 -14.40625 "/></g></g></g><g fill="#000000" fill-opacity="1"><g transform="translate(204.042828, 27.376317)"><g><path d="M 7.03125 -2.9375 C 7.5625 -2.9375 8.203125 -3.070312 8.953125 -3.34375 L 8.953125 -0.4375 C 8.410156 -0.207031 7.894531 -0.046875 7.40625 0.046875 C 6.925781 0.148438 6.363281 0.203125 5.71875 0.203125 C 4.375 0.203125 3.40625 -0.125 2.8125 -0.78125 C 2.226562 -1.4375 1.9375 -2.441406 1.9375 -3.796875 L 1.9375 -8.5625 L 0.546875 -8.5625 L 0.546875 -10.171875 L 2.3125 -11.421875 L 3.34375 -13.859375 L 5.953125 -13.859375 L 5.953125 -11.546875 L 8.78125 -11.546875 L 8.78125 -8.5625 L 5.953125 -8.5625 L 5.953125 -4.0625 C 5.953125 -3.3125 6.3125 -2.9375 7.03125 -2.9375 Z M 7.03125 -2.9375 "/></g></g></g><g fill="#000000" fill-opacity="1"><g transform="translate(213.634384, 27.376317)"><g><path d="M 12.390625 -5.796875 C 12.390625 -3.910156 11.878906 -2.4375 10.859375 -1.375 C 9.847656 -0.320312 8.429688 0.203125 6.609375 0.203125 C 4.859375 0.203125 3.460938 -0.332031 2.421875 -1.40625 C 1.390625 -2.488281 0.875 -3.953125 0.875 -5.796875 C 0.875 -7.671875 1.378906 -9.128906 2.390625 -10.171875 C 3.410156 -11.222656 4.835938 -11.75 6.671875 -11.75 C 7.804688 -11.75 8.804688 -11.503906 9.671875 -11.015625 C 10.546875 -10.535156 11.21875 -9.84375 11.6875 -8.9375 C 12.15625 -8.039062 12.390625 -6.992188 12.390625 -5.796875 Z M 4.921875 -5.796875 C 4.921875 -4.804688 5.050781 -4.050781 5.3125 -3.53125 C 5.582031 -3.007812 6.03125 -2.75 6.65625 -2.75 C 7.269531 -2.75 7.703125 -3.007812 7.953125 -3.53125 C 8.210938 -4.050781 8.34375 -4.804688 8.34375 -5.796875 C 8.34375 -6.773438 8.210938 -7.515625 7.953125 -8.015625 C 7.691406 -8.523438 7.25 -8.78125 6.625 -8.78125 C 6.019531 -8.78125 5.582031 -8.53125 5.3125 -8.03125 C 5.050781 -7.53125 4.921875 -6.785156 4.921875 -5.796875 Z M 4.921875 -5.796875 "/></g></g></g><g fill="#000000" fill-opacity="1"><g transform="translate(226.922054, 27.376317)"><g><path d="M 8.34375 -11.75 C 8.6875 -11.75 9.015625 -11.71875 9.328125 -11.65625 L 9.546875 -11.625 L 9.203125 -7.859375 C 8.867188 -7.941406 8.414062 -7.984375 7.84375 -7.984375 C 6.96875 -7.984375 6.332031 -7.785156 5.9375 -7.390625 C 5.550781 -6.992188 5.359375 -6.421875 5.359375 -5.671875 L 5.359375 0 L 1.375 0 L 1.375 -11.546875 L 4.34375 -11.546875 L 4.953125 -9.703125 L 5.15625 -9.703125 C 5.488281 -10.304688 5.953125 -10.796875 6.546875 -11.171875 C 7.140625 -11.554688 7.738281 -11.75 8.34375 -11.75 Z M 8.34375 -11.75 "/></g></g></g><g fill="#000000" fill-opacity="1"><g transform="translate(236.707076, 27.376317)"><g><path d="M 5.375 0 L 1.390625 0 L 1.390625 -11.546875 L 5.375 -11.546875 Z M 1.296875 -14.40625 C 1.296875 -15.007812 1.460938 -15.457031 1.796875 -15.75 C 2.128906 -16.039062 2.664062 -16.1875 3.40625 -16.1875 C 4.144531 -16.1875 4.679688 -16.035156 5.015625 -15.734375 C 5.359375 -15.429688 5.53125 -14.988281 5.53125 -14.40625 C 5.53125 -13.238281 4.820312 -12.65625 3.40625 -12.65625 C 2 -12.65625 1.296875 -13.238281 1.296875 -14.40625 Z M 1.296875 -14.40625 "/></g></g></g><g fill="#000000" fill-opacity="1"><g transform="translate(243.488367, 27.376317)"><g><path d="M 8.65625 0 L 8.65625 -6.296875 C 8.65625 -7.066406 8.546875 -7.644531 8.328125 -8.03125 C 8.109375 -8.414062 7.753906 -8.609375 7.265625 -8.609375 C 6.585938 -8.609375 6.097656 -8.335938 5.796875 -7.796875 C 5.503906 -7.265625 5.359375 -6.347656 5.359375 -5.046875 L 5.359375 0 L 1.375 0 L 1.375 -11.546875 L 4.375 -11.546875 L 4.875 -10.109375 L 5.109375 -10.109375 C 5.453125 -10.648438 5.921875 -11.054688 6.515625 -11.328125 C 7.117188 -11.609375 7.8125 -11.75 8.59375 -11.75 C 9.875 -11.75 10.867188 -11.375 11.578125 -10.625 C 12.285156 -9.882812 12.640625 -8.84375 12.640625 -7.5 L 12.640625 0 Z M 8.65625 0 "/></g></g></g><g fill="#000000" fill-opacity="1"><g transform="translate(257.458234, 27.376317)"><g><path d="M 12.265625 -11.546875 L 12.265625 -9.609375 L 10.6875 -9.03125 C 10.90625 -8.632812 11.015625 -8.175781 11.015625 -7.65625 C 11.015625 -6.414062 10.578125 -5.453125 9.703125 -4.765625 C 8.828125 -4.078125 7.523438 -3.734375 5.796875 -3.734375 C 5.367188 -3.734375 5.03125 -3.757812 4.78125 -3.8125 C 4.6875 -3.632812 4.640625 -3.472656 4.640625 -3.328125 C 4.640625 -3.128906 4.796875 -2.972656 5.109375 -2.859375 C 5.429688 -2.753906 5.847656 -2.703125 6.359375 -2.703125 L 8.28125 -2.703125 C 10.863281 -2.703125 12.15625 -1.613281 12.15625 0.5625 C 12.15625 1.96875 11.554688 3.0625 10.359375 3.84375 C 9.160156 4.625 7.476562 5.015625 5.3125 5.015625 C 3.675781 5.015625 2.414062 4.738281 1.53125 4.1875 C 0.644531 3.644531 0.203125 2.859375 0.203125 1.828125 C 0.203125 0.453125 1.054688 -0.429688 2.765625 -0.828125 C 2.410156 -0.984375 2.101562 -1.226562 1.84375 -1.5625 C 1.582031 -1.894531 1.453125 -2.222656 1.453125 -2.546875 C 1.453125 -2.910156 1.550781 -3.226562 1.75 -3.5 C 1.945312 -3.769531 2.359375 -4.097656 2.984375 -4.484375 C 2.390625 -4.742188 1.921875 -5.15625 1.578125 -5.71875 C 1.234375 -6.28125 1.0625 -6.96875 1.0625 -7.78125 C 1.0625 -9.039062 1.488281 -10.015625 2.34375 -10.703125 C 3.195312 -11.398438 4.421875 -11.75 6.015625 -11.75 C 6.222656 -11.75 6.582031 -11.722656 7.09375 -11.671875 C 7.613281 -11.617188 7.992188 -11.578125 8.234375 -11.546875 Z M 3.5625 1.4375 C 3.5625 1.757812 3.738281 2.019531 4.09375 2.21875 C 4.445312 2.425781 4.921875 2.53125 5.515625 2.53125 C 6.472656 2.53125 7.242188 2.40625 7.828125 2.15625 C 8.410156 1.914062 8.703125 1.609375 8.703125 1.234375 C 8.703125 0.929688 8.523438 0.710938 8.171875 0.578125 C 7.816406 0.453125 7.3125 0.390625 6.65625 0.390625 L 5.09375 0.390625 C 4.664062 0.390625 4.300781 0.488281 4 0.6875 C 3.707031 0.894531 3.5625 1.144531 3.5625 1.4375 Z M 4.8125 -7.765625 C 4.8125 -6.578125 5.222656 -5.984375 6.046875 -5.984375 C 6.429688 -5.984375 6.722656 -6.128906 6.921875 -6.421875 C 7.128906 -6.710938 7.234375 -7.148438 7.234375 -7.734375 C 7.234375 -8.929688 6.835938 -9.53125 6.046875 -9.53125 C 5.222656 -9.53125 4.8125 -8.941406 4.8125 -7.765625 Z M 4.8125 -7.765625 "/></g></g></g><g fill="#000000" fill-opacity="1"><g transform="translate(67.670776, 56.437755)"><g><path d="M 11.34375 -4.515625 C 11.34375 -3.597656 11.109375 -2.78125 10.640625 -2.0625 C 10.171875 -1.34375 9.492188 -0.785156 8.609375 -0.390625 C 7.734375 0.00390625 6.703125 0.203125 5.515625 0.203125 C 4.515625 0.203125 3.675781 0.132812 3 0 C 2.332031 -0.144531 1.640625 -0.390625 0.921875 -0.734375 L 0.921875 -4.3125 C 1.679688 -3.925781 2.472656 -3.617188 3.296875 -3.390625 C 4.128906 -3.171875 4.894531 -3.0625 5.59375 -3.0625 C 6.1875 -3.0625 6.625 -3.164062 6.90625 -3.375 C 7.1875 -3.582031 7.328125 -3.847656 7.328125 -4.171875 C 7.328125 -4.378906 7.269531 -4.554688 7.15625 -4.703125 C 7.039062 -4.859375 6.859375 -5.015625 6.609375 -5.171875 C 6.367188 -5.328125 5.710938 -5.644531 4.640625 -6.125 C 3.660156 -6.570312 2.925781 -7 2.4375 -7.40625 C 1.957031 -7.820312 1.597656 -8.296875 1.359375 -8.828125 C 1.128906 -9.367188 1.015625 -10.007812 1.015625 -10.75 C 1.015625 -12.113281 1.515625 -13.179688 2.515625 -13.953125 C 3.515625 -14.722656 4.882812 -15.109375 6.625 -15.109375 C 8.164062 -15.109375 9.738281 -14.75 11.34375 -14.03125 L 10.109375 -10.921875 C 8.722656 -11.566406 7.523438 -11.890625 6.515625 -11.890625 C 5.984375 -11.890625 5.597656 -11.796875 5.359375 -11.609375 C 5.128906 -11.429688 5.015625 -11.203125 5.015625 -10.921875 C 5.015625 -10.628906 5.164062 -10.367188 5.46875 -10.140625 C 5.769531 -9.910156 6.585938 -9.488281 7.921875 -8.875 C 9.203125 -8.300781 10.09375 -7.679688 10.59375 -7.015625 C 11.09375 -6.359375 11.34375 -5.523438 11.34375 -4.515625 Z M 11.34375 -4.515625 "/></g></g></g><g fill="#000000" fill-opacity="1"><g transform="translate(79.70604, 56.437755)"><g><path d="M -0.015625 -11.546875 L 4.171875 -11.546875 L 6.125 -4.921875 C 6.226562 -4.578125 6.296875 -4.160156 6.328125 -3.671875 L 6.40625 -3.671875 C 6.457031 -4.140625 6.539062 -4.550781 6.65625 -4.90625 L 8.65625 -11.546875 L 12.71875 -11.546875 L 8.15625 0.734375 C 7.570312 2.296875 6.851562 3.398438 6 4.046875 C 5.144531 4.691406 4.035156 5.015625 2.671875 5.015625 C 2.140625 5.015625 1.59375 4.957031 1.03125 4.84375 L 1.03125 1.71875 C 1.394531 1.789062 1.804688 1.828125 2.265625 1.828125 C 2.617188 1.828125 2.925781 1.757812 3.1875 1.625 C 3.457031 1.488281 3.691406 1.296875 3.890625 1.046875 C 4.085938 0.804688 4.296875 0.40625 4.515625 -0.15625 Z M -0.015625 -11.546875 "/></g></g></g><g fill="#000000" fill-opacity="1"><g transform="translate(92.423511, 56.437755)"><g><path d="M 10.28125 -3.546875 C 10.28125 -2.304688 9.859375 -1.367188 9.015625 -0.734375 C 8.179688 -0.109375 6.972656 0.203125 5.390625 0.203125 C 4.535156 0.203125 3.789062 0.15625 3.15625 0.0625 C 2.53125 -0.03125 1.890625 -0.195312 1.234375 -0.4375 L 1.234375 -3.625 C 1.847656 -3.351562 2.523438 -3.128906 3.265625 -2.953125 C 4.003906 -2.773438 4.660156 -2.6875 5.234375 -2.6875 C 6.097656 -2.6875 6.53125 -2.882812 6.53125 -3.28125 C 6.53125 -3.476562 6.410156 -3.65625 6.171875 -3.8125 C 5.929688 -3.976562 5.226562 -4.289062 4.0625 -4.75 C 3 -5.1875 2.257812 -5.679688 1.84375 -6.234375 C 1.425781 -6.785156 1.21875 -7.488281 1.21875 -8.34375 C 1.21875 -9.414062 1.628906 -10.25 2.453125 -10.84375 C 3.285156 -11.445312 4.457031 -11.75 5.96875 -11.75 C 6.726562 -11.75 7.441406 -11.664062 8.109375 -11.5 C 8.773438 -11.332031 9.472656 -11.085938 10.203125 -10.765625 L 9.109375 -8.203125 C 8.585938 -8.441406 8.03125 -8.640625 7.4375 -8.796875 C 6.84375 -8.960938 6.359375 -9.046875 5.984375 -9.046875 C 5.335938 -9.046875 5.015625 -8.890625 5.015625 -8.578125 C 5.015625 -8.378906 5.125 -8.207031 5.34375 -8.0625 C 5.570312 -7.925781 6.234375 -7.644531 7.328125 -7.21875 C 8.128906 -6.882812 8.726562 -6.554688 9.125 -6.234375 C 9.53125 -5.921875 9.820312 -5.546875 10 -5.109375 C 10.1875 -4.679688 10.28125 -4.160156 10.28125 -3.546875 Z M 10.28125 -3.546875 "/></g></g></g><g fill="#000000" fill-opacity="1"><g transform="translate(103.542385, 56.437755)"><g><path d="M 7.03125 -2.9375 C 7.5625 -2.9375 8.203125 -3.070312 8.953125 -3.34375 L 8.953125 -0.4375 C 8.410156 -0.207031 7.894531 -0.046875 7.40625 0.046875 C 6.925781 0.148438 6.363281 0.203125 5.71875 0.203125 C 4.375 0.203125 3.40625 -0.125 2.8125 -0.78125 C 2.226562 -1.4375 1.9375 -2.441406 1.9375 -3.796875 L 1.9375 -8.5625 L 0.546875 -8.5625 L 0.546875 -10.171875 L 2.3125 -11.421875 L 3.34375 -13.859375 L 5.953125 -13.859375 L 5.953125 -11.546875 L 8.78125 -11.546875 L 8.78125 -8.5625 L 5.953125 -8.5625 L 5.953125 -4.0625 C 5.953125 -3.3125 6.3125 -2.9375 7.03125 -2.9375 Z M 7.03125 -2.9375 "/></g></g></g><g fill="#000000" fill-opacity="1"><g transform="translate(113.133941, 56.437755)"><g><path d="M 6.953125 0.203125 C 5.023438 0.203125 3.53125 -0.304688 2.46875 -1.328125 C 1.40625 -2.347656 0.875 -3.800781 0.875 -5.6875 C 0.875 -7.632812 1.363281 -9.128906 2.34375 -10.171875 C 3.332031 -11.222656 4.738281 -11.75 6.5625 -11.75 C 8.300781 -11.75 9.644531 -11.296875 10.59375 -10.390625 C 11.539062 -9.484375 12.015625 -8.175781 12.015625 -6.46875 L 12.015625 -4.703125 L 4.90625 -4.703125 C 4.925781 -4.054688 5.160156 -3.546875 5.609375 -3.171875 C 6.054688 -2.804688 6.660156 -2.625 7.421875 -2.625 C 8.117188 -2.625 8.757812 -2.691406 9.34375 -2.828125 C 9.9375 -2.960938 10.578125 -3.1875 11.265625 -3.5 L 11.265625 -0.640625 C 10.640625 -0.316406 9.992188 -0.0976562 9.328125 0.015625 C 8.660156 0.140625 7.867188 0.203125 6.953125 0.203125 Z M 6.71875 -9.03125 C 6.25 -9.03125 5.851562 -8.878906 5.53125 -8.578125 C 5.21875 -8.285156 5.035156 -7.828125 4.984375 -7.203125 L 8.40625 -7.203125 C 8.382812 -7.753906 8.222656 -8.195312 7.921875 -8.53125 C 7.617188 -8.863281 7.21875 -9.03125 6.71875 -9.03125 Z M 6.71875 -9.03125 "/></g></g></g><g fill="#000000" fill-opacity="1"><g transform="translate(126.024503, 56.437755)"><g><path d="M 15.546875 0 L 15.546875 -6.28125 C 15.546875 -7.0625 15.4375 -7.644531 15.21875 -8.03125 C 15.007812 -8.414062 14.671875 -8.609375 14.203125 -8.609375 C 13.597656 -8.609375 13.148438 -8.347656 12.859375 -7.828125 C 12.578125 -7.304688 12.4375 -6.488281 12.4375 -5.375 L 12.4375 0 L 8.4375 0 L 8.4375 -6.28125 C 8.4375 -7.0625 8.332031 -7.644531 8.125 -8.03125 C 7.925781 -8.414062 7.601562 -8.609375 7.15625 -8.609375 C 6.53125 -8.609375 6.070312 -8.332031 5.78125 -7.78125 C 5.5 -7.226562 5.359375 -6.316406 5.359375 -5.046875 L 5.359375 0 L 1.375 0 L 1.375 -11.546875 L 4.375 -11.546875 L 4.875 -10.109375 L 5.109375 -10.109375 C 5.421875 -10.640625 5.863281 -11.046875 6.4375 -11.328125 C 7.019531 -11.609375 7.679688 -11.75 8.421875 -11.75 C 10.085938 -11.75 11.253906 -11.238281 11.921875 -10.21875 L 12.25 -10.21875 C 12.570312 -10.695312 13.019531 -11.070312 13.59375 -11.34375 C 14.175781 -11.613281 14.816406 -11.75 15.515625 -11.75 C 16.878906 -11.75 17.890625 -11.394531 18.546875 -10.6875 C 19.203125 -9.988281 19.53125 -8.925781 19.53125 -7.5 L 19.53125 0 Z M 15.546875 0 "/></g></g></g></svg>