<svg xmlns="http://www.w3.org/2000/svg" xmlns:xlink="http://www.w3.org/1999/xlink" width="90" zoomAndPan="magnify" viewBox="0 0 67.5 54.749999" height="73" preserveAspectRatio="xMidYMid meet" version="1.0"><defs><clipPath id="id1"><path d="M 18 0.078125 L 49 0.078125 L 49 20 L 18 20 Z M 18 0.078125 " clip-rule="nonzero"/></clipPath><clipPath id="id2"><path d="M 8 32 L 59.902344 32 L 59.902344 54.425781 L 8 54.425781 Z M 8 32 " clip-rule="nonzero"/></clipPath></defs><path fill="#504b8e" d="M 21.652344 21.476562 C 22.761719 27.203125 27.695312 31.507812 33.679688 31.507812 C 39.667969 31.507812 44.605469 27.203125 45.714844 21.476562 C 44.980469 21.582031 44.0625 21.691406 42.886719 21.808594 C 40.574219 22.039062 37.457031 22.238281 33.675781 22.238281 C 29.898438 22.238281 26.777344 22.039062 24.46875 21.808594 C 23.300781 21.691406 22.386719 21.582031 21.652344 21.476562 Z M 21.652344 21.476562 " fill-opacity="1" fill-rule="evenodd"/><g clip-path="url(#id1)"><path fill="#504b8e" d="M 33.683594 0.0898438 C 31.179688 0.0898438 29.167969 1.714844 29.167969 3.730469 L 29.167969 7.273438 C 29.167969 8.496094 27.882812 8.554688 27.546875 7.335938 L 26.863281 4.867188 C 23.835938 6.945312 21.910156 10.289062 21.628906 13.960938 C 20.027344 13.914062 18.902344 15.046875 18.902344 16.457031 C 18.902344 17.738281 19.507812 18.664062 20.578125 18.953125 C 21.511719 19.203125 26.285156 19.972656 33.683594 19.972656 C 41.085938 19.972656 45.859375 19.207031 46.789062 18.953125 C 47.859375 18.664062 48.46875 17.738281 48.46875 16.457031 C 48.46875 15.046875 47.339844 13.914062 45.742188 13.960938 C 45.457031 10.289062 43.53125 6.945312 40.5 4.867188 L 39.820312 7.335938 C 39.480469 8.554688 38.195312 8.496094 38.195312 7.273438 L 38.195312 3.730469 C 38.195312 1.714844 36.1875 0.0898438 33.683594 0.0898438 Z M 33.683594 0.0898438 " fill-opacity="1" fill-rule="evenodd"/></g><g clip-path="url(#id2)"><path fill="#504b8e" d="M 18.789062 46.15625 L 48.574219 46.15625 L 48.574219 51.457031 C 44.253906 52 37.550781 52.441406 33.683594 52.441406 C 29.816406 52.441406 23.113281 52 18.789062 51.457031 Z M 41.285156 32.988281 L 34.4375 38.238281 C 33.980469 38.589844 33.375 38.589844 32.914062 38.238281 L 26.074219 32.996094 L 23.132812 34.179688 L 23.132812 43.398438 L 18.792969 43.398438 L 18.792969 35.929688 L 14.015625 37.851562 C 11.972656 38.667969 11.226562 39.761719 10.660156 41.464844 L 8.246094 48.730469 C 7.738281 50.90625 8.804688 51.722656 9.777344 52.023438 C 13.917969 52.957031 25.648438 54.820312 33.683594 54.820312 C 41.714844 54.820312 53.449219 52.957031 57.59375 52.023438 C 58.5625 51.722656 59.625 50.90625 59.121094 48.730469 L 56.707031 41.464844 C 56.140625 39.761719 55.390625 38.667969 53.351562 37.851562 L 48.574219 35.929688 L 48.574219 43.398438 L 44.238281 43.398438 L 44.238281 34.179688 Z M 41.285156 32.988281 " fill-opacity="1" fill-rule="nonzero"/></g></svg>