<svg xmlns="http://www.w3.org/2000/svg" xmlns:xlink="http://www.w3.org/1999/xlink" width="300" zoomAndPan="magnify" viewBox="0 0 224.87999 67.499998" height="90" preserveAspectRatio="xMidYMid meet" version="1.0"><defs><g/><clipPath id="id1"><path d="M 0.765625 0 L 223.992188 0 L 223.992188 67.003906 L 0.765625 67.003906 Z M 0.765625 0 " clip-rule="nonzero"/></clipPath><clipPath id="id2"><path d="M 24 3.351562 L 58 3.351562 L 58 26 L 24 26 Z M 24 3.351562 " clip-rule="nonzero"/></clipPath><clipPath id="id3"><path d="M 12.203125 39 L 70 39 L 70 63.652344 L 12.203125 63.652344 Z M 12.203125 39 " clip-rule="nonzero"/></clipPath></defs><g clip-path="url(#id1)"><path fill="#ffffff" d="M 0.765625 0 L 224.113281 0 L 224.113281 74.449219 L 0.765625 74.449219 Z M 0.765625 0 " fill-opacity="1" fill-rule="nonzero"/><path fill="#ffffff" d="M 0.765625 0 L 224.113281 0 L 224.113281 67.003906 L 0.765625 67.003906 Z M 0.765625 0 " fill-opacity="1" fill-rule="nonzero"/><path fill="#ffffff" d="M 0.765625 0 L 224.113281 0 L 224.113281 67.003906 L 0.765625 67.003906 Z M 0.765625 0 " fill-opacity="1" fill-rule="nonzero"/></g><path fill="#504b8e" d="M 27.964844 26.917969 C 29.191406 33.226562 34.652344 37.96875 41.269531 37.96875 C 47.890625 37.96875 53.351562 33.226562 54.578125 26.917969 C 53.765625 27.035156 52.75 27.15625 51.449219 27.285156 C 48.890625 27.539062 45.445312 27.761719 41.265625 27.761719 C 37.085938 27.761719 33.632812 27.539062 31.082031 27.285156 C 29.785156 27.15625 28.777344 27.035156 27.964844 26.917969 Z M 27.964844 26.917969 " fill-opacity="1" fill-rule="evenodd"/><g clip-path="url(#id2)"><path fill="#504b8e" d="M 41.273438 3.367188 C 38.5 3.367188 36.277344 5.15625 36.277344 7.375 L 36.277344 11.277344 C 36.277344 12.621094 34.855469 12.6875 34.484375 11.34375 L 33.730469 8.625 C 30.378906 10.914062 28.25 14.597656 27.9375 18.640625 C 26.167969 18.589844 24.921875 19.835938 24.921875 21.390625 C 24.921875 22.804688 25.589844 23.824219 26.777344 24.140625 C 27.808594 24.417969 33.085938 25.265625 41.273438 25.265625 C 49.457031 25.265625 54.738281 24.417969 55.765625 24.140625 C 56.949219 23.824219 57.621094 22.804688 57.621094 21.390625 C 57.621094 19.839844 56.375 18.589844 54.605469 18.640625 C 54.292969 14.597656 52.164062 10.914062 48.8125 8.625 L 48.058594 11.34375 C 47.683594 12.6875 46.261719 12.621094 46.261719 11.277344 L 46.261719 7.375 C 46.261719 5.15625 44.039062 3.367188 41.273438 3.367188 Z M 41.273438 3.367188 " fill-opacity="1" fill-rule="evenodd"/></g><g clip-path="url(#id3)"><path fill="#504b8e" d="M 24.800781 54.101562 L 57.742188 54.101562 L 57.742188 59.941406 C 52.964844 60.542969 45.546875 61.023438 41.273438 61.023438 C 36.992188 61.023438 29.582031 60.542969 24.800781 59.941406 Z M 49.679688 39.601562 L 42.105469 45.382812 C 41.601562 45.769531 40.929688 45.769531 40.421875 45.382812 L 32.855469 39.609375 L 29.601562 40.914062 L 29.601562 51.0625 L 24.800781 51.0625 L 24.800781 42.839844 L 19.515625 44.953125 C 17.261719 45.855469 16.433594 47.058594 15.808594 48.933594 L 13.136719 56.9375 C 12.578125 59.335938 13.753906 60.234375 14.828125 60.566406 C 19.410156 61.59375 32.386719 63.644531 41.273438 63.644531 C 50.15625 63.644531 63.132812 61.59375 67.714844 60.566406 C 68.789062 60.234375 69.964844 59.335938 69.40625 56.9375 L 66.734375 48.933594 C 66.109375 47.058594 65.28125 45.855469 63.023438 44.953125 L 57.742188 42.839844 L 57.742188 51.0625 L 52.945312 51.0625 L 52.945312 40.914062 Z M 49.679688 39.601562 " fill-opacity="1" fill-rule="nonzero"/></g><g fill="#504b8e" fill-opacity="1"><g transform="translate(82.906544, 48.091439)"><g><path d="M 33.65625 -27.53125 C 33.65625 -23.019531 32.320312 -19.535156 29.65625 -17.078125 C 27 -14.617188 23.222656 -13.390625 18.328125 -13.390625 L 15.265625 -13.390625 L 15.265625 0 L 4.359375 0 L 4.359375 -40.359375 L 18.328125 -40.359375 C 23.429688 -40.359375 27.257812 -39.242188 29.8125 -37.015625 C 32.375 -34.796875 33.65625 -31.632812 33.65625 -27.53125 Z M 15.265625 -22.28125 L 17.25 -22.28125 C 18.894531 -22.28125 20.195312 -22.738281 21.15625 -23.65625 C 22.125 -24.582031 22.609375 -25.851562 22.609375 -27.46875 C 22.609375 -30.195312 21.097656 -31.5625 18.078125 -31.5625 L 15.265625 -31.5625 Z M 15.265625 -22.28125 "/></g></g></g><g fill="#504b8e" fill-opacity="1"><g transform="translate(118.634327, 48.091439)"><g><path d="M 21.953125 0 L 13.6875 -29.078125 L 13.453125 -29.078125 C 13.835938 -24.117188 14.03125 -20.269531 14.03125 -17.53125 L 14.03125 0 L 4.359375 0 L 4.359375 -40.359375 L 18.890625 -40.359375 L 27.3125 -11.703125 L 27.53125 -11.703125 L 35.78125 -40.359375 L 50.328125 -40.359375 L 50.328125 0 L 40.3125 0 L 40.3125 -17.703125 C 40.3125 -18.617188 40.320312 -19.640625 40.34375 -20.765625 C 40.375 -21.890625 40.5 -24.640625 40.71875 -29.015625 L 40.484375 -29.015625 L 32.328125 0 Z M 21.953125 0 "/></g></g></g><g fill="#504b8e" fill-opacity="1"><g transform="translate(173.302804, 48.091439)"><g><path d="M 30.765625 -12.265625 C 30.765625 -9.753906 30.128906 -7.523438 28.859375 -5.578125 C 27.585938 -3.640625 25.753906 -2.132812 23.359375 -1.0625 C 20.960938 0.0078125 18.15625 0.546875 14.9375 0.546875 C 12.25 0.546875 9.992188 0.359375 8.171875 -0.015625 C 6.347656 -0.390625 4.453125 -1.046875 2.484375 -1.984375 L 2.484375 -11.703125 C 4.566406 -10.640625 6.726562 -9.804688 8.96875 -9.203125 C 11.21875 -8.609375 13.28125 -8.3125 15.15625 -8.3125 C 16.78125 -8.3125 17.96875 -8.59375 18.71875 -9.15625 C 19.476562 -9.71875 19.859375 -10.441406 19.859375 -11.328125 C 19.859375 -11.878906 19.703125 -12.359375 19.390625 -12.765625 C 19.085938 -13.179688 18.597656 -13.597656 17.921875 -14.015625 C 17.253906 -14.441406 15.46875 -15.3125 12.5625 -16.625 C 9.925781 -17.820312 7.953125 -18.976562 6.640625 -20.09375 C 5.328125 -21.21875 4.351562 -22.503906 3.71875 -23.953125 C 3.082031 -25.410156 2.765625 -27.132812 2.765625 -29.125 C 2.765625 -32.84375 4.113281 -35.742188 6.8125 -37.828125 C 9.519531 -39.910156 13.238281 -40.953125 17.96875 -40.953125 C 22.15625 -40.953125 26.421875 -39.984375 30.765625 -38.046875 L 27.421875 -29.625 C 23.640625 -31.351562 20.378906 -32.21875 17.640625 -32.21875 C 16.222656 -32.21875 15.191406 -31.96875 14.546875 -31.46875 C 13.898438 -30.976562 13.578125 -30.363281 13.578125 -29.625 C 13.578125 -28.832031 13.988281 -28.125 14.8125 -27.5 C 15.632812 -26.875 17.859375 -25.734375 21.484375 -24.078125 C 24.960938 -22.515625 27.378906 -20.832031 28.734375 -19.03125 C 30.085938 -17.238281 30.765625 -14.984375 30.765625 -12.265625 Z M 30.765625 -12.265625 "/></g></g></g><g fill="#504b8e" fill-opacity="1"><g transform="translate(95.560354, 62.950365)"><g><path d="M 4.375 -4.015625 C 4.375 -3.441406 4.175781 -3 3.78125 -2.6875 C 3.394531 -2.382812 2.835938 -2.234375 2.109375 -2.234375 L 1.4375 -2.234375 L 1.4375 0 L 0.78125 0 L 0.78125 -5.671875 L 2.25 -5.671875 C 3.664062 -5.671875 4.375 -5.117188 4.375 -4.015625 Z M 1.4375 -2.796875 L 2.03125 -2.796875 C 2.613281 -2.796875 3.035156 -2.890625 3.296875 -3.078125 C 3.554688 -3.265625 3.6875 -3.566406 3.6875 -3.984375 C 3.6875 -4.359375 3.5625 -4.632812 3.3125 -4.8125 C 3.070312 -5 2.691406 -5.09375 2.171875 -5.09375 L 1.4375 -5.09375 Z M 1.4375 -2.796875 "/></g></g><g transform="translate(100.341347, 62.950365)"><g><path d="M 2.625 -4.328125 C 2.8125 -4.328125 2.976562 -4.3125 3.125 -4.28125 L 3.03125 -3.6875 C 2.863281 -3.71875 2.710938 -3.734375 2.578125 -3.734375 C 2.234375 -3.734375 1.9375 -3.59375 1.6875 -3.3125 C 1.445312 -3.039062 1.328125 -2.695312 1.328125 -2.28125 L 1.328125 0 L 0.6875 0 L 0.6875 -4.25 L 1.21875 -4.25 L 1.28125 -3.46875 L 1.3125 -3.46875 C 1.46875 -3.738281 1.65625 -3.945312 1.875 -4.09375 C 2.101562 -4.25 2.351562 -4.328125 2.625 -4.328125 Z M 2.625 -4.328125 "/></g></g><g transform="translate(103.582961, 62.950365)"><g><path d="M 4.34375 -2.125 C 4.34375 -1.4375 4.164062 -0.894531 3.8125 -0.5 C 3.46875 -0.113281 2.988281 0.078125 2.375 0.078125 C 2 0.078125 1.660156 -0.0078125 1.359375 -0.1875 C 1.066406 -0.363281 0.84375 -0.617188 0.6875 -0.953125 C 0.53125 -1.285156 0.453125 -1.675781 0.453125 -2.125 C 0.453125 -2.820312 0.625 -3.363281 0.96875 -3.75 C 1.3125 -4.132812 1.789062 -4.328125 2.40625 -4.328125 C 3 -4.328125 3.46875 -4.128906 3.8125 -3.734375 C 4.164062 -3.335938 4.34375 -2.800781 4.34375 -2.125 Z M 1.109375 -2.125 C 1.109375 -1.582031 1.21875 -1.171875 1.4375 -0.890625 C 1.65625 -0.609375 1.972656 -0.46875 2.390625 -0.46875 C 2.816406 -0.46875 3.140625 -0.609375 3.359375 -0.890625 C 3.578125 -1.171875 3.6875 -1.582031 3.6875 -2.125 C 3.6875 -2.664062 3.578125 -3.078125 3.359375 -3.359375 C 3.140625 -3.640625 2.816406 -3.78125 2.390625 -3.78125 C 1.960938 -3.78125 1.640625 -3.640625 1.421875 -3.359375 C 1.210938 -3.085938 1.109375 -2.675781 1.109375 -2.125 Z M 1.109375 -2.125 "/></g></g><g transform="translate(108.379465, 62.950365)"><g><path d="M 0.171875 1.90625 C -0.078125 1.90625 -0.28125 1.875 -0.4375 1.8125 L -0.4375 1.28125 C -0.25 1.332031 -0.0703125 1.359375 0.09375 1.359375 C 0.300781 1.359375 0.453125 1.300781 0.546875 1.1875 C 0.640625 1.082031 0.6875 0.921875 0.6875 0.703125 L 0.6875 -4.25 L 1.328125 -4.25 L 1.328125 0.65625 C 1.328125 1.488281 0.941406 1.90625 0.171875 1.90625 Z M 0.625 -5.40625 C 0.625 -5.550781 0.660156 -5.65625 0.734375 -5.71875 C 0.804688 -5.789062 0.894531 -5.828125 1 -5.828125 C 1.101562 -5.828125 1.191406 -5.789062 1.265625 -5.71875 C 1.347656 -5.644531 1.390625 -5.539062 1.390625 -5.40625 C 1.390625 -5.257812 1.347656 -5.148438 1.265625 -5.078125 C 1.191406 -5.003906 1.101562 -4.96875 1 -4.96875 C 0.894531 -4.96875 0.804688 -5.003906 0.734375 -5.078125 C 0.660156 -5.148438 0.625 -5.257812 0.625 -5.40625 Z M 0.625 -5.40625 "/></g></g><g transform="translate(110.388024, 62.950365)"><g><path d="M 2.484375 0.078125 C 1.847656 0.078125 1.347656 -0.109375 0.984375 -0.484375 C 0.628906 -0.867188 0.453125 -1.40625 0.453125 -2.09375 C 0.453125 -2.769531 0.617188 -3.3125 0.953125 -3.71875 C 1.285156 -4.125 1.738281 -4.328125 2.3125 -4.328125 C 2.84375 -4.328125 3.257812 -4.148438 3.5625 -3.796875 C 3.875 -3.453125 4.03125 -2.992188 4.03125 -2.421875 L 4.03125 -2 L 1.109375 -2 C 1.117188 -1.507812 1.242188 -1.132812 1.484375 -0.875 C 1.722656 -0.613281 2.0625 -0.484375 2.5 -0.484375 C 2.957031 -0.484375 3.410156 -0.578125 3.859375 -0.765625 L 3.859375 -0.203125 C 3.628906 -0.0976562 3.410156 -0.0234375 3.203125 0.015625 C 3.003906 0.0546875 2.765625 0.078125 2.484375 0.078125 Z M 2.296875 -3.78125 C 1.960938 -3.78125 1.691406 -3.671875 1.484375 -3.453125 C 1.285156 -3.234375 1.164062 -2.925781 1.125 -2.53125 L 3.34375 -2.53125 C 3.34375 -2.9375 3.253906 -3.242188 3.078125 -3.453125 C 2.898438 -3.671875 2.640625 -3.78125 2.296875 -3.78125 Z M 2.296875 -3.78125 "/></g></g><g transform="translate(114.843305, 62.950365)"><g><path d="M 2.375 0.078125 C 1.757812 0.078125 1.285156 -0.109375 0.953125 -0.484375 C 0.617188 -0.867188 0.453125 -1.40625 0.453125 -2.09375 C 0.453125 -2.800781 0.617188 -3.347656 0.953125 -3.734375 C 1.296875 -4.128906 1.785156 -4.328125 2.421875 -4.328125 C 2.628906 -4.328125 2.832031 -4.300781 3.03125 -4.25 C 3.238281 -4.207031 3.398438 -4.160156 3.515625 -4.109375 L 3.3125 -3.5625 C 3.175781 -3.613281 3.019531 -3.65625 2.84375 -3.6875 C 2.675781 -3.726562 2.53125 -3.75 2.40625 -3.75 C 1.539062 -3.75 1.109375 -3.203125 1.109375 -2.109375 C 1.109375 -1.585938 1.210938 -1.1875 1.421875 -0.90625 C 1.640625 -0.625 1.953125 -0.484375 2.359375 -0.484375 C 2.710938 -0.484375 3.078125 -0.5625 3.453125 -0.71875 L 3.453125 -0.140625 C 3.171875 0.00390625 2.8125 0.078125 2.375 0.078125 Z M 2.375 0.078125 "/></g></g><g transform="translate(118.623896, 62.950365)"><g><path d="M 2.046875 -0.453125 C 2.160156 -0.453125 2.269531 -0.457031 2.375 -0.46875 C 2.488281 -0.488281 2.578125 -0.507812 2.640625 -0.53125 L 2.640625 -0.03125 C 2.566406 0 2.460938 0.0234375 2.328125 0.046875 C 2.191406 0.0664062 2.070312 0.078125 1.96875 0.078125 C 1.144531 0.078125 0.734375 -0.351562 0.734375 -1.21875 L 0.734375 -3.75 L 0.125 -3.75 L 0.125 -4.0625 L 0.734375 -4.328125 L 1 -5.234375 L 1.375 -5.234375 L 1.375 -4.25 L 2.609375 -4.25 L 2.609375 -3.75 L 1.375 -3.75 L 1.375 -1.25 C 1.375 -0.988281 1.429688 -0.789062 1.546875 -0.65625 C 1.671875 -0.519531 1.835938 -0.453125 2.046875 -0.453125 Z M 2.046875 -0.453125 "/></g></g><g transform="translate(121.427349, 62.950365)"><g/></g><g transform="translate(123.490195, 62.950365)"><g><path d="M 3.28125 0 L 1.359375 -5.015625 L 1.328125 -5.015625 C 1.367188 -4.617188 1.390625 -4.148438 1.390625 -3.609375 L 1.390625 0 L 0.78125 0 L 0.78125 -5.671875 L 1.765625 -5.671875 L 3.5625 -1 L 3.59375 -1 L 5.40625 -5.671875 L 6.390625 -5.671875 L 6.390625 0 L 5.734375 0 L 5.734375 -3.65625 C 5.734375 -4.070312 5.75 -4.523438 5.78125 -5.015625 L 5.75 -5.015625 L 3.8125 0 Z M 3.28125 0 "/></g></g><g transform="translate(130.659745, 62.950365)"><g><path d="M 4.34375 -2.125 C 4.34375 -1.4375 4.164062 -0.894531 3.8125 -0.5 C 3.46875 -0.113281 2.988281 0.078125 2.375 0.078125 C 2 0.078125 1.660156 -0.0078125 1.359375 -0.1875 C 1.066406 -0.363281 0.84375 -0.617188 0.6875 -0.953125 C 0.53125 -1.285156 0.453125 -1.675781 0.453125 -2.125 C 0.453125 -2.820312 0.625 -3.363281 0.96875 -3.75 C 1.3125 -4.132812 1.789062 -4.328125 2.40625 -4.328125 C 3 -4.328125 3.46875 -4.128906 3.8125 -3.734375 C 4.164062 -3.335938 4.34375 -2.800781 4.34375 -2.125 Z M 1.109375 -2.125 C 1.109375 -1.582031 1.21875 -1.171875 1.4375 -0.890625 C 1.65625 -0.609375 1.972656 -0.46875 2.390625 -0.46875 C 2.816406 -0.46875 3.140625 -0.609375 3.359375 -0.890625 C 3.578125 -1.171875 3.6875 -1.582031 3.6875 -2.125 C 3.6875 -2.664062 3.578125 -3.078125 3.359375 -3.359375 C 3.140625 -3.640625 2.816406 -3.78125 2.390625 -3.78125 C 1.960938 -3.78125 1.640625 -3.640625 1.421875 -3.359375 C 1.210938 -3.085938 1.109375 -2.675781 1.109375 -2.125 Z M 1.109375 -2.125 "/></g></g><g transform="translate(135.456249, 62.950365)"><g><path d="M 3.59375 0 L 3.59375 -2.75 C 3.59375 -3.09375 3.507812 -3.347656 3.34375 -3.515625 C 3.1875 -3.691406 2.941406 -3.78125 2.609375 -3.78125 C 2.171875 -3.78125 1.847656 -3.660156 1.640625 -3.421875 C 1.429688 -3.179688 1.328125 -2.785156 1.328125 -2.234375 L 1.328125 0 L 0.6875 0 L 0.6875 -4.25 L 1.203125 -4.25 L 1.3125 -3.671875 L 1.34375 -3.671875 C 1.46875 -3.878906 1.648438 -4.039062 1.890625 -4.15625 C 2.128906 -4.269531 2.394531 -4.328125 2.6875 -4.328125 C 3.195312 -4.328125 3.582031 -4.203125 3.84375 -3.953125 C 4.101562 -3.703125 4.234375 -3.304688 4.234375 -2.765625 L 4.234375 0 Z M 3.59375 0 "/></g></g><g transform="translate(140.330302, 62.950365)"><g><path d="M 1.328125 0 L 0.6875 0 L 0.6875 -4.25 L 1.328125 -4.25 Z M 0.625 -5.40625 C 0.625 -5.550781 0.660156 -5.65625 0.734375 -5.71875 C 0.804688 -5.789062 0.894531 -5.828125 1 -5.828125 C 1.101562 -5.828125 1.191406 -5.789062 1.265625 -5.71875 C 1.347656 -5.644531 1.390625 -5.539062 1.390625 -5.40625 C 1.390625 -5.257812 1.347656 -5.148438 1.265625 -5.078125 C 1.191406 -5.003906 1.101562 -4.96875 1 -4.96875 C 0.894531 -4.96875 0.804688 -5.003906 0.734375 -5.078125 C 0.660156 -5.148438 0.625 -5.257812 0.625 -5.40625 Z M 0.625 -5.40625 "/></g></g><g transform="translate(142.338862, 62.950365)"><g><path d="M 2.046875 -0.453125 C 2.160156 -0.453125 2.269531 -0.457031 2.375 -0.46875 C 2.488281 -0.488281 2.578125 -0.507812 2.640625 -0.53125 L 2.640625 -0.03125 C 2.566406 0 2.460938 0.0234375 2.328125 0.046875 C 2.191406 0.0664062 2.070312 0.078125 1.96875 0.078125 C 1.144531 0.078125 0.734375 -0.351562 0.734375 -1.21875 L 0.734375 -3.75 L 0.125 -3.75 L 0.125 -4.0625 L 0.734375 -4.328125 L 1 -5.234375 L 1.375 -5.234375 L 1.375 -4.25 L 2.609375 -4.25 L 2.609375 -3.75 L 1.375 -3.75 L 1.375 -1.25 C 1.375 -0.988281 1.429688 -0.789062 1.546875 -0.65625 C 1.671875 -0.519531 1.835938 -0.453125 2.046875 -0.453125 Z M 2.046875 -0.453125 "/></g></g><g transform="translate(145.142316, 62.950365)"><g><path d="M 4.34375 -2.125 C 4.34375 -1.4375 4.164062 -0.894531 3.8125 -0.5 C 3.46875 -0.113281 2.988281 0.078125 2.375 0.078125 C 2 0.078125 1.660156 -0.0078125 1.359375 -0.1875 C 1.066406 -0.363281 0.84375 -0.617188 0.6875 -0.953125 C 0.53125 -1.285156 0.453125 -1.675781 0.453125 -2.125 C 0.453125 -2.820312 0.625 -3.363281 0.96875 -3.75 C 1.3125 -4.132812 1.789062 -4.328125 2.40625 -4.328125 C 3 -4.328125 3.46875 -4.128906 3.8125 -3.734375 C 4.164062 -3.335938 4.34375 -2.800781 4.34375 -2.125 Z M 1.109375 -2.125 C 1.109375 -1.582031 1.21875 -1.171875 1.4375 -0.890625 C 1.65625 -0.609375 1.972656 -0.46875 2.390625 -0.46875 C 2.816406 -0.46875 3.140625 -0.609375 3.359375 -0.890625 C 3.578125 -1.171875 3.6875 -1.582031 3.6875 -2.125 C 3.6875 -2.664062 3.578125 -3.078125 3.359375 -3.359375 C 3.140625 -3.640625 2.816406 -3.78125 2.390625 -3.78125 C 1.960938 -3.78125 1.640625 -3.640625 1.421875 -3.359375 C 1.210938 -3.085938 1.109375 -2.675781 1.109375 -2.125 Z M 1.109375 -2.125 "/></g></g><g transform="translate(149.938819, 62.950365)"><g><path d="M 2.625 -4.328125 C 2.8125 -4.328125 2.976562 -4.3125 3.125 -4.28125 L 3.03125 -3.6875 C 2.863281 -3.71875 2.710938 -3.734375 2.578125 -3.734375 C 2.234375 -3.734375 1.9375 -3.59375 1.6875 -3.3125 C 1.445312 -3.039062 1.328125 -2.695312 1.328125 -2.28125 L 1.328125 0 L 0.6875 0 L 0.6875 -4.25 L 1.21875 -4.25 L 1.28125 -3.46875 L 1.3125 -3.46875 C 1.46875 -3.738281 1.65625 -3.945312 1.875 -4.09375 C 2.101562 -4.25 2.351562 -4.328125 2.625 -4.328125 Z M 2.625 -4.328125 "/></g></g><g transform="translate(153.180433, 62.950365)"><g><path d="M 1.328125 0 L 0.6875 0 L 0.6875 -4.25 L 1.328125 -4.25 Z M 0.625 -5.40625 C 0.625 -5.550781 0.660156 -5.65625 0.734375 -5.71875 C 0.804688 -5.789062 0.894531 -5.828125 1 -5.828125 C 1.101562 -5.828125 1.191406 -5.789062 1.265625 -5.71875 C 1.347656 -5.644531 1.390625 -5.539062 1.390625 -5.40625 C 1.390625 -5.257812 1.347656 -5.148438 1.265625 -5.078125 C 1.191406 -5.003906 1.101562 -4.96875 1 -4.96875 C 0.894531 -4.96875 0.804688 -5.003906 0.734375 -5.078125 C 0.660156 -5.148438 0.625 -5.257812 0.625 -5.40625 Z M 0.625 -5.40625 "/></g></g><g transform="translate(155.188993, 62.950365)"><g><path d="M 3.59375 0 L 3.59375 -2.75 C 3.59375 -3.09375 3.507812 -3.347656 3.34375 -3.515625 C 3.1875 -3.691406 2.941406 -3.78125 2.609375 -3.78125 C 2.171875 -3.78125 1.847656 -3.660156 1.640625 -3.421875 C 1.429688 -3.179688 1.328125 -2.785156 1.328125 -2.234375 L 1.328125 0 L 0.6875 0 L 0.6875 -4.25 L 1.203125 -4.25 L 1.3125 -3.671875 L 1.34375 -3.671875 C 1.46875 -3.878906 1.648438 -4.039062 1.890625 -4.15625 C 2.128906 -4.269531 2.394531 -4.328125 2.6875 -4.328125 C 3.195312 -4.328125 3.582031 -4.203125 3.84375 -3.953125 C 4.101562 -3.703125 4.234375 -3.304688 4.234375 -2.765625 L 4.234375 0 Z M 3.59375 0 "/></g></g><g transform="translate(160.063047, 62.950365)"><g><path d="M 4.15625 -4.25 L 4.15625 -3.84375 L 3.375 -3.75 C 3.445312 -3.65625 3.507812 -3.535156 3.5625 -3.390625 C 3.625 -3.242188 3.65625 -3.082031 3.65625 -2.90625 C 3.65625 -2.488281 3.507812 -2.15625 3.21875 -1.90625 C 2.9375 -1.65625 2.546875 -1.53125 2.046875 -1.53125 C 1.921875 -1.53125 1.804688 -1.539062 1.703125 -1.5625 C 1.421875 -1.414062 1.28125 -1.234375 1.28125 -1.015625 C 1.28125 -0.898438 1.328125 -0.8125 1.421875 -0.75 C 1.523438 -0.695312 1.691406 -0.671875 1.921875 -0.671875 L 2.671875 -0.671875 C 3.128906 -0.671875 3.484375 -0.570312 3.734375 -0.375 C 3.984375 -0.1875 4.109375 0.09375 4.109375 0.46875 C 4.109375 0.9375 3.914062 1.289062 3.53125 1.53125 C 3.15625 1.78125 2.609375 1.90625 1.890625 1.90625 C 1.328125 1.90625 0.894531 1.800781 0.59375 1.59375 C 0.300781 1.382812 0.15625 1.09375 0.15625 0.71875 C 0.15625 0.457031 0.234375 0.234375 0.390625 0.046875 C 0.554688 -0.140625 0.789062 -0.265625 1.09375 -0.328125 C 0.988281 -0.378906 0.898438 -0.457031 0.828125 -0.5625 C 0.753906 -0.664062 0.71875 -0.785156 0.71875 -0.921875 C 0.71875 -1.078125 0.757812 -1.210938 0.84375 -1.328125 C 0.925781 -1.441406 1.054688 -1.554688 1.234375 -1.671875 C 1.015625 -1.753906 0.832031 -1.90625 0.6875 -2.125 C 0.550781 -2.34375 0.484375 -2.59375 0.484375 -2.875 C 0.484375 -3.332031 0.625 -3.6875 0.90625 -3.9375 C 1.1875 -4.195312 1.582031 -4.328125 2.09375 -4.328125 C 2.3125 -4.328125 2.507812 -4.300781 2.6875 -4.25 Z M 0.765625 0.71875 C 0.765625 0.945312 0.863281 1.117188 1.0625 1.234375 C 1.257812 1.359375 1.535156 1.421875 1.890625 1.421875 C 2.429688 1.421875 2.832031 1.335938 3.09375 1.171875 C 3.351562 1.015625 3.484375 0.796875 3.484375 0.515625 C 3.484375 0.285156 3.410156 0.125 3.265625 0.03125 C 3.128906 -0.0507812 2.863281 -0.09375 2.46875 -0.09375 L 1.703125 -0.09375 C 1.410156 -0.09375 1.179688 -0.0234375 1.015625 0.109375 C 0.847656 0.253906 0.765625 0.457031 0.765625 0.71875 Z M 1.125 -2.890625 C 1.125 -2.585938 1.207031 -2.359375 1.375 -2.203125 C 1.539062 -2.054688 1.773438 -1.984375 2.078125 -1.984375 C 2.703125 -1.984375 3.015625 -2.289062 3.015625 -2.90625 C 3.015625 -3.539062 2.695312 -3.859375 2.0625 -3.859375 C 1.757812 -3.859375 1.523438 -3.773438 1.359375 -3.609375 C 1.203125 -3.453125 1.125 -3.210938 1.125 -2.890625 Z M 1.125 -2.890625 "/></g></g><g transform="translate(164.413634, 62.950365)"><g/></g><g transform="translate(166.47648, 62.950365)"><g><path d="M 3.96875 -1.5 C 3.96875 -1.007812 3.785156 -0.625 3.421875 -0.34375 C 3.066406 -0.0625 2.582031 0.078125 1.96875 0.078125 C 1.289062 0.078125 0.769531 -0.0078125 0.40625 -0.1875 L 0.40625 -0.8125 C 0.644531 -0.71875 0.898438 -0.640625 1.171875 -0.578125 C 1.441406 -0.523438 1.710938 -0.5 1.984375 -0.5 C 2.421875 -0.5 2.75 -0.582031 2.96875 -0.75 C 3.195312 -0.914062 3.3125 -1.148438 3.3125 -1.453125 C 3.3125 -1.640625 3.269531 -1.796875 3.1875 -1.921875 C 3.113281 -2.046875 2.984375 -2.160156 2.796875 -2.265625 C 2.609375 -2.378906 2.328125 -2.503906 1.953125 -2.640625 C 1.421875 -2.828125 1.039062 -3.046875 0.8125 -3.296875 C 0.59375 -3.554688 0.484375 -3.894531 0.484375 -4.3125 C 0.484375 -4.75 0.644531 -5.097656 0.96875 -5.359375 C 1.300781 -5.617188 1.738281 -5.75 2.28125 -5.75 C 2.84375 -5.75 3.359375 -5.644531 3.828125 -5.4375 L 3.625 -4.859375 C 3.15625 -5.054688 2.703125 -5.15625 2.265625 -5.15625 C 1.910156 -5.15625 1.632812 -5.078125 1.4375 -4.921875 C 1.25 -4.773438 1.15625 -4.570312 1.15625 -4.3125 C 1.15625 -4.113281 1.191406 -3.953125 1.265625 -3.828125 C 1.335938 -3.703125 1.457031 -3.585938 1.625 -3.484375 C 1.800781 -3.378906 2.066406 -3.265625 2.421875 -3.140625 C 3.015625 -2.921875 3.421875 -2.691406 3.640625 -2.453125 C 3.859375 -2.210938 3.96875 -1.894531 3.96875 -1.5 Z M 3.96875 -1.5 "/></g></g><g transform="translate(170.834822, 62.950365)"><g><path d="M 0 -4.25 L 0.703125 -4.25 L 1.625 -1.828125 C 1.832031 -1.273438 1.957031 -0.875 2 -0.625 L 2.03125 -0.625 C 2.070312 -0.757812 2.144531 -0.984375 2.25 -1.296875 C 2.351562 -1.617188 2.703125 -2.601562 3.296875 -4.25 L 3.984375 -4.25 L 2.171875 0.59375 C 1.984375 1.070312 1.769531 1.410156 1.53125 1.609375 C 1.289062 1.804688 0.992188 1.90625 0.640625 1.90625 C 0.441406 1.90625 0.25 1.882812 0.0625 1.84375 L 0.0625 1.328125 C 0.207031 1.359375 0.363281 1.375 0.53125 1.375 C 0.976562 1.375 1.296875 1.125 1.484375 0.625 L 1.71875 0.015625 Z M 0 -4.25 "/></g></g><g transform="translate(174.836432, 62.950365)"><g><path d="M 3.421875 -1.15625 C 3.421875 -0.757812 3.269531 -0.453125 2.96875 -0.234375 C 2.675781 -0.0234375 2.265625 0.078125 1.734375 0.078125 C 1.171875 0.078125 0.734375 -0.0078125 0.421875 -0.1875 L 0.421875 -0.78125 C 0.628906 -0.675781 0.847656 -0.59375 1.078125 -0.53125 C 1.316406 -0.476562 1.539062 -0.453125 1.75 -0.453125 C 2.09375 -0.453125 2.351562 -0.503906 2.53125 -0.609375 C 2.707031 -0.722656 2.796875 -0.890625 2.796875 -1.109375 C 2.796875 -1.273438 2.722656 -1.414062 2.578125 -1.53125 C 2.441406 -1.644531 2.164062 -1.785156 1.75 -1.953125 C 1.351562 -2.097656 1.070312 -2.222656 0.90625 -2.328125 C 0.738281 -2.441406 0.613281 -2.566406 0.53125 -2.703125 C 0.445312 -2.847656 0.40625 -3.015625 0.40625 -3.203125 C 0.40625 -3.546875 0.546875 -3.816406 0.828125 -4.015625 C 1.109375 -4.222656 1.492188 -4.328125 1.984375 -4.328125 C 2.441406 -4.328125 2.890625 -4.234375 3.328125 -4.046875 L 3.109375 -3.515625 C 2.679688 -3.691406 2.296875 -3.78125 1.953125 -3.78125 C 1.640625 -3.78125 1.40625 -3.734375 1.25 -3.640625 C 1.09375 -3.546875 1.015625 -3.414062 1.015625 -3.25 C 1.015625 -3.132812 1.046875 -3.035156 1.109375 -2.953125 C 1.171875 -2.878906 1.265625 -2.804688 1.390625 -2.734375 C 1.515625 -2.660156 1.765625 -2.554688 2.140625 -2.421875 C 2.640625 -2.234375 2.976562 -2.046875 3.15625 -1.859375 C 3.332031 -1.671875 3.421875 -1.4375 3.421875 -1.15625 Z M 3.421875 -1.15625 "/></g></g><g transform="translate(178.624778, 62.950365)"><g><path d="M 2.046875 -0.453125 C 2.160156 -0.453125 2.269531 -0.457031 2.375 -0.46875 C 2.488281 -0.488281 2.578125 -0.507812 2.640625 -0.53125 L 2.640625 -0.03125 C 2.566406 0 2.460938 0.0234375 2.328125 0.046875 C 2.191406 0.0664062 2.070312 0.078125 1.96875 0.078125 C 1.144531 0.078125 0.734375 -0.351562 0.734375 -1.21875 L 0.734375 -3.75 L 0.125 -3.75 L 0.125 -4.0625 L 0.734375 -4.328125 L 1 -5.234375 L 1.375 -5.234375 L 1.375 -4.25 L 2.609375 -4.25 L 2.609375 -3.75 L 1.375 -3.75 L 1.375 -1.25 C 1.375 -0.988281 1.429688 -0.789062 1.546875 -0.65625 C 1.671875 -0.519531 1.835938 -0.453125 2.046875 -0.453125 Z M 2.046875 -0.453125 "/></g></g><g transform="translate(181.428231, 62.950365)"><g><path d="M 2.484375 0.078125 C 1.847656 0.078125 1.347656 -0.109375 0.984375 -0.484375 C 0.628906 -0.867188 0.453125 -1.40625 0.453125 -2.09375 C 0.453125 -2.769531 0.617188 -3.3125 0.953125 -3.71875 C 1.285156 -4.125 1.738281 -4.328125 2.3125 -4.328125 C 2.84375 -4.328125 3.257812 -4.148438 3.5625 -3.796875 C 3.875 -3.453125 4.03125 -2.992188 4.03125 -2.421875 L 4.03125 -2 L 1.109375 -2 C 1.117188 -1.507812 1.242188 -1.132812 1.484375 -0.875 C 1.722656 -0.613281 2.0625 -0.484375 2.5 -0.484375 C 2.957031 -0.484375 3.410156 -0.578125 3.859375 -0.765625 L 3.859375 -0.203125 C 3.628906 -0.0976562 3.410156 -0.0234375 3.203125 0.015625 C 3.003906 0.0546875 2.765625 0.078125 2.484375 0.078125 Z M 2.296875 -3.78125 C 1.960938 -3.78125 1.691406 -3.671875 1.484375 -3.453125 C 1.285156 -3.234375 1.164062 -2.925781 1.125 -2.53125 L 3.34375 -2.53125 C 3.34375 -2.9375 3.253906 -3.242188 3.078125 -3.453125 C 2.898438 -3.671875 2.640625 -3.78125 2.296875 -3.78125 Z M 2.296875 -3.78125 "/></g></g><g transform="translate(185.883512, 62.950365)"><g><path d="M 6.09375 0 L 6.09375 -2.765625 C 6.09375 -3.097656 6.019531 -3.347656 5.875 -3.515625 C 5.726562 -3.691406 5.503906 -3.78125 5.203125 -3.78125 C 4.804688 -3.78125 4.507812 -3.664062 4.3125 -3.4375 C 4.125 -3.207031 4.03125 -2.851562 4.03125 -2.375 L 4.03125 0 L 3.390625 0 L 3.390625 -2.765625 C 3.390625 -3.097656 3.316406 -3.347656 3.171875 -3.515625 C 3.023438 -3.691406 2.796875 -3.78125 2.484375 -3.78125 C 2.085938 -3.78125 1.796875 -3.65625 1.609375 -3.40625 C 1.421875 -3.164062 1.328125 -2.773438 1.328125 -2.234375 L 1.328125 0 L 0.6875 0 L 0.6875 -4.25 L 1.203125 -4.25 L 1.3125 -3.671875 L 1.34375 -3.671875 C 1.457031 -3.867188 1.625 -4.023438 1.84375 -4.140625 C 2.070312 -4.265625 2.320312 -4.328125 2.59375 -4.328125 C 3.257812 -4.328125 3.695312 -4.085938 3.90625 -3.609375 L 3.9375 -3.609375 C 4.0625 -3.828125 4.242188 -4 4.484375 -4.125 C 4.722656 -4.257812 4.992188 -4.328125 5.296875 -4.328125 C 5.773438 -4.328125 6.132812 -4.203125 6.375 -3.953125 C 6.613281 -3.703125 6.734375 -3.304688 6.734375 -2.765625 L 6.734375 0 Z M 6.09375 0 "/></g></g></g></svg>